<svg width="79" height="78" viewBox="0 0 79 78" fill="none" xmlns="http://www.w3.org/2000/svg">
<path d="M39.4727 77.246C60.8695 77.246 78.215 59.9838 78.215 38.6899C78.215 17.3959 60.8695 0.133789 39.4727 0.133789C18.076 0.133789 0.730469 17.3959 0.730469 38.6899C0.730469 59.9838 18.076 77.246 39.4727 77.246Z" fill="#00663A"/>
<path d="M39.4744 74.2289C19.7846 74.2289 3.78125 58.2853 3.78125 38.7072C3.78125 19.112 19.8018 3.18555 39.4744 3.18555C59.1642 3.18555 75.1676 19.1292 75.1676 38.7072C75.1676 58.2853 59.147 74.2289 39.4744 74.2289ZM39.4744 3.95701C20.2325 3.95701 4.57367 19.5406 4.57367 38.6901C4.57367 57.8395 20.2325 73.4231 39.4744 73.4231C58.7164 73.4231 74.3752 57.8395 74.3752 38.6901C74.3752 19.5406 58.7164 3.95701 39.4744 3.95701Z" fill="#69FF93"/>
<path d="M54.5965 43.987C54.4587 43.987 54.3209 43.9355 54.2175 43.8327C54.0108 43.6269 54.0108 43.2841 54.2175 43.0783L57.5939 39.701V33.4779C57.5939 33.3407 57.6456 33.2036 57.749 33.1007L61.6594 29.2091C61.7283 29.1406 61.8316 29.0891 61.935 29.0548C62.0039 29.0377 62.6929 28.9348 63.2786 29.4834C63.8988 30.0834 64.1227 31.1806 63.8988 32.7407C63.8816 32.8607 63.8299 32.9636 63.7438 33.0493L62.6413 34.1465V38.2438C62.6413 38.381 62.5896 38.5181 62.4862 38.621L61.3665 39.7353C61.1598 39.9411 60.8153 39.9411 60.6085 39.7353C60.4018 39.5296 60.4018 39.1867 60.6085 38.981L61.5732 38.021V33.9236C61.5732 33.7865 61.6249 33.6493 61.7283 33.5465L62.848 32.4321C63.0202 30.9921 62.7274 30.4606 62.5379 30.272C62.4345 30.1692 62.314 30.1349 62.2278 30.1177L58.662 33.7179V39.9411C58.662 40.0782 58.6103 40.2154 58.5069 40.3182L54.9583 43.8327C54.8549 43.9355 54.7343 43.987 54.5965 43.987Z" fill="#69FF93"/>
<path d="M62.6391 21.632C61.864 21.632 61.2266 22.2664 61.2266 23.0378C61.2266 23.2264 61.261 23.415 61.3299 23.5864L59.5384 25.3865V18.3576C60.038 18.1347 60.3825 17.6547 60.3825 17.0718C60.3825 16.3004 59.7451 15.666 58.9699 15.666C58.1947 15.666 57.5573 16.3004 57.5573 17.0718C57.5573 17.6719 57.9363 18.169 58.4531 18.3747V26.4494L57.5573 27.358C57.5229 27.3923 57.5057 27.4266 57.4884 27.4609L54.2671 30.6667C54.1637 30.7696 54.1121 30.9068 54.1121 31.0439V39.7186L48.3068 45.4617C47.3593 45.9417 46.4635 45.9417 45.8606 45.8217L50.8735 40.8672C50.9769 40.7644 51.0285 40.6272 51.0285 40.4901V31.2668L54.7667 27.5466C54.87 27.4437 54.9217 27.3066 54.9217 27.1694V15.2375C55.4213 15.0317 55.783 14.5174 55.783 13.9517C55.783 13.1802 55.1456 12.5459 54.3705 12.5459C53.5953 12.5459 52.9579 13.1802 52.9579 13.9517C52.9579 14.5346 53.3196 15.0489 53.8364 15.2546V26.9466L50.0983 30.6667C49.9949 30.7696 49.9433 30.9068 49.9433 31.0439V40.2672L44.4825 45.6846C44.3619 45.8046 44.3102 45.976 44.3274 46.1475C44.3619 46.3189 44.4653 46.4561 44.6203 46.5418C44.672 46.5589 45.4472 46.9361 46.5669 46.9361C47.2387 46.9361 48.0484 46.7989 48.8752 46.3532C48.9269 46.3361 48.9614 46.3018 48.9958 46.2675L55.0251 40.3186C55.1284 40.2158 55.1801 40.0786 55.1801 39.9415V31.2668L59.3834 27.0837C59.4178 27.0494 59.4523 26.998 59.4695 26.9637L62.0707 24.3407C62.2429 24.4093 62.4152 24.4436 62.6219 24.4436C63.3971 24.4436 64.0345 23.8093 64.0345 23.0378C64.0345 22.2664 63.4143 21.632 62.6391 21.632ZM58.9871 16.4547C59.3144 16.4547 59.5901 16.7289 59.5901 17.0547C59.5901 17.3804 59.3144 17.6547 58.9871 17.6547C58.6598 17.6547 58.3842 17.3804 58.3842 17.0547C58.3842 16.7289 58.6598 16.4547 58.9871 16.4547ZM54.4049 13.3345C54.7322 13.3345 55.0078 13.6088 55.0078 13.9345C55.0078 14.226 54.8011 14.4831 54.5083 14.5346C54.4738 14.5346 54.4394 14.5174 54.4049 14.5174C54.3705 14.5174 54.336 14.5174 54.3016 14.5346C54.0087 14.4831 53.7848 14.2431 53.7848 13.9345C53.7848 13.6088 54.0604 13.3345 54.4049 13.3345ZM62.6391 23.6378C62.3118 23.6378 62.0362 23.3635 62.0362 23.0378C62.0362 22.7121 62.3118 22.4378 62.6391 22.4378C62.9664 22.4378 63.2421 22.7121 63.2421 23.0378C63.2421 23.3635 62.9664 23.6378 62.6391 23.6378Z" fill="#69FF93"/>
<path d="M34.9936 50.6391C34.8558 50.6391 34.718 50.5877 34.6146 50.4848L23.6414 39.5472C23.538 39.4443 23.4863 39.3071 23.4863 39.17V32.5183L16.2685 25.3351C16.1479 25.2151 16.079 25.0265 16.1306 24.855C16.5096 23.0207 17.3537 21.7006 18.7146 20.8434C18.9213 20.7063 19.1969 20.7406 19.3864 20.912L27.5345 29.0381C27.6379 29.141 27.6896 29.2781 27.6896 29.4152V36.3927L35.4932 44.1759C35.5965 44.2788 35.6482 44.416 35.6482 44.5531V50.0905C35.6482 50.3648 35.4242 50.6048 35.1486 50.622C35.0969 50.622 35.0453 50.6391 34.9936 50.6391ZM24.5544 38.9471L34.5974 48.9419V44.7588L26.7766 36.9756C26.6732 36.8727 26.6215 36.7356 26.6215 36.5984V29.621L18.9386 21.9749C18.0945 22.6264 17.526 23.5693 17.2331 24.7865L24.3993 31.9182C24.5027 32.0211 24.5544 32.1582 24.5544 32.2954V38.9471Z" fill="#69FF93"/>
<path d="M27.3955 48.2733C27.2577 48.2733 27.1199 48.2218 27.0166 48.119L20.2982 41.4329C20.1949 41.3301 20.1432 41.1929 20.1432 41.0558V34.2497L15.3543 29.4838C15.1475 29.2781 15.1475 28.9352 15.3543 28.7295C15.561 28.5238 15.9055 28.5238 16.1122 28.7295L21.0562 33.6497C21.1596 33.7526 21.2112 33.8897 21.2112 34.0269V40.8329L27.7745 47.3646C27.9812 47.5704 27.9812 47.9132 27.7745 48.119C27.6712 48.2218 27.5333 48.2733 27.3955 48.2733Z" fill="#69FF93"/>
<path d="M18.2138 41.5358C18.076 41.5358 17.9382 41.4844 17.8348 41.3815L14.7168 38.2614C14.6479 38.1928 14.5962 38.1071 14.579 38.0213C14.5446 37.9528 14.5273 37.8671 14.5273 37.7985V32.8954C14.5273 32.6725 14.6652 32.4839 14.8546 32.3982C15.0614 32.3125 15.2853 32.3639 15.4403 32.5182L18.5928 35.6555C18.6961 35.7584 18.7478 35.8955 18.7478 36.0327V41.0043C18.7478 41.2272 18.61 41.4158 18.4205 41.5015C18.3516 41.5358 18.2827 41.5358 18.2138 41.5358ZM15.5954 37.6442L17.6798 39.7186V36.2555L15.5954 34.1812V37.6442Z" fill="#69FF93"/>
<path d="M43.3656 40.1471V35.124C43.2967 35.1412 43.2278 35.1412 43.1589 35.1412C42.9177 35.1412 42.6765 35.0897 42.4698 34.9697V39.9585L39.0245 43.3873C38.9384 43.473 38.8867 43.593 38.8867 43.6959V67.6284C38.8867 67.8684 39.0934 68.0741 39.3346 68.0741C39.5758 68.0741 39.7825 67.8684 39.7825 67.6284V43.8844L43.2278 40.4557C43.3139 40.37 43.3656 40.2671 43.3656 40.1471Z" fill="#69FF93"/>
<path d="M50.805 12.3573C50.7017 12.2716 50.5639 12.2373 50.4261 12.2716C50.4088 12.2716 49.5647 12.4431 48.4795 12.0659C47.6871 11.7745 47.1703 10.7801 47.1703 10.7801C47.0497 10.6258 46.8602 10.5573 46.6707 10.6087C46.4812 10.6601 46.3606 10.8487 46.3606 11.0373V22.3864L42.6053 26.1237C42.5191 26.2094 42.4674 26.3294 42.4674 26.4323V32.1068C42.4674 32.3811 42.8981 32.3811 43.1565 32.3297C43.2254 32.3126 43.2943 32.3468 43.3632 32.3468V26.6209L47.1186 22.8835C47.2047 22.7978 47.2564 22.6778 47.2564 22.575V12.203C47.5665 12.4773 47.756 12.7688 48.1866 12.9231C48.9618 13.1974 49.6336 13.2488 50.0815 13.2317V24.8551L46.3262 28.5924C46.24 28.6781 46.1884 28.7981 46.1884 28.901V41.2101L41.1066 46.2161C41.0204 46.3018 40.9688 46.4218 40.9688 46.5418L41.0032 64.9369C41.0032 65.0569 41.0549 65.1769 41.141 65.2455L43.2082 67.3028C43.3805 67.4742 43.6733 67.4742 43.8456 67.3028C44.0178 67.1313 44.0178 66.8399 43.8456 66.6684L41.899 64.6969L41.8645 46.6789L46.9808 41.673C47.0669 41.5873 47.1186 41.4673 47.1186 41.3644V29.0553L50.874 25.3179C50.9601 25.2322 51.0118 25.1122 51.0118 25.0094V12.7002C50.9945 12.5631 50.9256 12.4431 50.805 12.3573Z" fill="#69FF93"/>
<path d="M43.7611 12.6657C43.7611 12.1342 43.3304 11.7056 42.7964 11.7056C42.2624 11.7056 41.8317 12.1342 41.8317 12.6657C41.8317 13.0086 42.004 13.3 42.2796 13.4714V20.7061L39.5062 23.4662V12.9743C40.0057 12.7514 40.3503 12.2714 40.3503 11.6885C40.3503 10.917 39.7129 10.2827 38.9377 10.2827C38.1625 10.2827 37.5251 10.917 37.5251 11.6885C37.5251 12.2885 37.9041 12.8028 38.4381 12.9914V36.3582L35.7163 33.3924V13.0771C35.7163 12.8886 35.613 12.7171 35.4579 12.6314C35.3029 12.5285 35.0962 12.5285 34.9412 12.6143C34.166 13.0086 33.787 13.54 33.4252 14.0543C33.2702 14.2772 33.1152 14.5001 32.9257 14.7229C32.495 15.2201 31.4442 14.8944 31.427 14.8944C31.2719 14.8429 31.0824 14.8772 30.9446 14.9629C30.8068 15.0658 30.7207 15.2201 30.7207 15.3915V25.3348L28.085 22.7119V17.3802C28.085 17.0887 27.8439 16.8487 27.551 16.8487C27.2582 16.8487 27.017 17.0887 27.017 17.3802V21.649L24.6053 19.2488C24.6914 19.0603 24.7431 18.8545 24.7431 18.6317C24.7431 17.8602 24.1057 17.2259 23.3305 17.2259C22.5553 17.2259 21.918 17.8602 21.918 18.6317C21.918 19.4031 22.5553 20.0375 23.3305 20.0375C23.4856 20.0375 23.6406 20.0032 23.7956 19.9517L30.5656 26.7063C30.6001 26.7406 30.6518 26.7749 30.7035 26.8092V35.4325C30.7035 35.5696 30.7551 35.7068 30.8413 35.7925L36.4054 41.6556L36.4571 64.731L35.0445 66.1196C34.8378 66.3253 34.8378 66.6682 35.0445 66.8739C35.1479 66.9768 35.2857 67.0282 35.4235 67.0282C35.5613 67.0282 35.6991 66.9768 35.8025 66.8739L37.3701 65.331C37.4734 65.2281 37.5251 65.091 37.5251 64.9538L37.4734 41.4327C37.4734 41.2956 37.4218 41.1756 37.3356 41.0727L31.7715 35.2096V16.0258C32.3572 16.0773 33.1668 16.0258 33.7009 15.3915C33.9248 15.1344 34.1143 14.8772 34.2693 14.6543C34.3899 14.4829 34.4933 14.3286 34.6139 14.1915V33.6324C34.6139 33.7695 34.6655 33.8895 34.7517 33.9924L38.5415 38.124C38.6965 38.2783 38.9205 38.3469 39.1272 38.2612C39.3339 38.1754 39.4717 37.9869 39.4717 37.764V24.9748L43.1582 21.3061C43.2615 21.2032 43.3132 21.0661 43.3132 20.9289V13.4543C43.6061 13.2829 43.7611 12.9914 43.7611 12.6657ZM23.365 19.2317C23.0377 19.2317 22.7621 18.9574 22.7621 18.6317C22.7621 18.3059 23.0377 18.0316 23.365 18.0316C23.6923 18.0316 23.9679 18.3059 23.9679 18.6317C23.9679 18.9574 23.7095 19.2317 23.365 19.2317ZM38.9377 11.1056C39.265 11.1056 39.5406 11.3799 39.5406 11.7056C39.5406 12.0314 39.265 12.3057 38.9377 12.3057C38.6104 12.3057 38.3348 12.0314 38.3348 11.7056C38.3348 11.3799 38.6104 11.1056 38.9377 11.1056Z" fill="#69FF93"/>
<path d="M39.3688 68.8626C39.9545 68.8626 40.4369 68.3826 40.4369 67.7997C40.4369 67.2168 39.9545 66.7368 39.3688 66.7368C38.7831 66.7368 38.3008 67.2168 38.3008 67.7997C38.3008 68.3826 38.7831 68.8626 39.3688 68.8626Z" fill="white"/>
<path d="M43.6394 68.0225C44.1734 68.0225 44.5868 67.5939 44.5868 67.0796C44.5868 66.5482 44.1562 66.1367 43.6394 66.1367C43.1226 66.1367 42.6919 66.5653 42.6919 67.0796C42.6747 67.5939 43.1053 68.0225 43.6394 68.0225Z" fill="white"/>
<path d="M60.8337 40.4898C61.4194 40.4898 61.9017 40.0098 61.9017 39.4269C61.9017 38.844 61.4194 38.364 60.8337 38.364C60.248 38.364 59.7656 38.844 59.7656 39.4269C59.7829 40.0098 60.248 40.4898 60.8337 40.4898Z" fill="white"/>
<path d="M54.4592 44.3985C54.9932 44.3985 55.4066 43.9699 55.4066 43.4556C55.4066 42.9241 54.976 42.5127 54.4592 42.5127C53.9252 42.5127 53.5117 42.9413 53.5117 43.4556C53.5117 43.9699 53.9252 44.3985 54.4592 44.3985Z" fill="white"/>
<path d="M27.1193 48.7359C27.6533 48.7359 28.0668 48.3073 28.0668 47.793C28.0668 47.2615 27.6361 46.8501 27.1193 46.8501C26.5853 46.8501 26.1719 47.2787 26.1719 47.793C26.1719 48.3245 26.5853 48.7359 27.1193 48.7359Z" fill="white"/>
<path d="M35.0769 67.9195C35.6109 67.9195 36.0243 67.4909 36.0243 66.9766C36.0243 66.4451 35.5937 66.0337 35.0769 66.0337C34.5428 66.0337 34.1294 66.4623 34.1294 66.9766C34.1122 67.508 34.5428 67.9195 35.0769 67.9195Z" fill="white"/>
<path d="M42.8983 36.2385C43.4323 36.2385 43.863 35.8099 43.863 35.2784C43.863 34.747 43.4323 34.3184 42.8983 34.3184C42.3643 34.3184 41.9336 34.747 41.9336 35.2784C41.9336 35.8099 42.3643 36.2385 42.8983 36.2385Z" fill="white"/>
<path d="M42.8983 32.7067C43.4323 32.7067 43.863 32.2781 43.863 31.7467C43.863 31.2152 43.4323 30.7866 42.8983 30.7866C42.3643 30.7866 41.9336 31.2152 41.9336 31.7467C41.9336 32.2781 42.3643 32.7067 42.8983 32.7067Z" fill="white"/>
<path d="M15.8029 30.1177C16.3369 30.1177 16.7504 29.6891 16.7504 29.1748C16.7504 28.6434 16.3197 28.2319 15.8029 28.2319C15.2689 28.2319 14.8555 28.6605 14.8555 29.1748C14.8555 29.6891 15.2861 30.1177 15.8029 30.1177Z" fill="white"/>
<path d="M27.5662 17.4142C28.1003 17.4142 28.5309 16.9856 28.5309 16.4542C28.5309 15.9227 28.1003 15.4941 27.5662 15.4941C27.0322 15.4941 26.6016 15.9227 26.6016 16.4542C26.6016 16.9856 27.0322 17.4142 27.5662 17.4142Z" fill="white"/>
</svg>
