<svg width="264" height="547" viewBox="0 0 264 547" fill="none" xmlns="http://www.w3.org/2000/svg">
<line x1="4.5" y1="77" x2="4.49999" y2="226" stroke="#69FF93"/>
<circle cx="4.5" cy="77.5" r="3.5" transform="rotate(90 4.5 77.5)" fill="#69FF93"/>
<circle cx="4.5" cy="225.5" r="3.5" transform="rotate(90 4.5 225.5)" fill="#69FF93"/>
<circle cx="4.5" cy="127.5" r="4.5" transform="rotate(90 4.5 127.5)" fill="#1B1B21"/>
<circle cx="4.5" cy="120.5" r="3.5" transform="rotate(90 4.5 120.5)" fill="#E3FFC7"/>
<circle cx="4.5" cy="134.5" r="3.5" transform="rotate(90 4.5 134.5)" fill="#E3FFC7"/>
<line x1="39.5" y1="282" x2="39.5" y2="431" stroke="#69FF93"/>
<circle cx="39.5" cy="282.5" r="3.5" transform="rotate(90 39.5 282.5)" fill="#69FF93"/>
<circle cx="39.5" cy="430.5" r="3.5" transform="rotate(90 39.5 430.5)" fill="#69FF93"/>
<circle cx="39.5" cy="332.5" r="4.5" transform="rotate(90 39.5 332.5)" fill="#1B1B21"/>
<circle cx="39.5" cy="325.5" r="3.5" transform="rotate(90 39.5 325.5)" fill="#E3FFC7"/>
<g filter="url(#filter0_d_172_2)">
<circle cx="39.5" cy="339.5" r="3.5" transform="rotate(90 39.5 339.5)" fill="#E3FFC7"/>
</g>
<line x1="96.5" y1="141" x2="96.5" y2="290" stroke="#69FF93"/>
<circle cx="96.5" cy="141.5" r="3.5" transform="rotate(90 96.5 141.5)" fill="#69FF93"/>
<circle cx="96.5" cy="289.5" r="3.5" transform="rotate(90 96.5 289.5)" fill="#69FF93"/>
<circle cx="96.5" cy="191.5" r="4.5" transform="rotate(90 96.5 191.5)" fill="#1B1B21"/>
<g filter="url(#filter1_d_172_2)">
<circle cx="96.5" cy="184.5" r="3.5" transform="rotate(90 96.5 184.5)" fill="#E3FFC7"/>
</g>
<circle cx="96.5" cy="198.5" r="3.5" transform="rotate(90 96.5 198.5)" fill="#E3FFC7"/>
<line x1="135.5" y1="363" x2="135.5" y2="214" stroke="#69FF93"/>
<circle cx="135.5" cy="362.5" r="3.5" transform="rotate(-90 135.5 362.5)" fill="#69FF93"/>
<circle cx="135.5" cy="214.5" r="3.5" transform="rotate(-90 135.5 214.5)" fill="#69FF93"/>
<circle cx="135.5" cy="312.5" r="4.5" transform="rotate(-90 135.5 312.5)" fill="#1B1B21"/>
<g filter="url(#filter2_d_172_2)">
<circle cx="135.5" cy="319.5" r="3.5" transform="rotate(-90 135.5 319.5)" fill="#E3FFC7"/>
</g>
<circle cx="135.5" cy="305.5" r="3.5" transform="rotate(-90 135.5 305.5)" fill="#E3FFC7"/>
<line x1="135.5" y1="395" x2="135.5" y2="544" stroke="#69FF93"/>
<circle cx="135.5" cy="395.5" r="3.5" transform="rotate(90 135.5 395.5)" fill="#69FF93"/>
<circle cx="135.5" cy="543.5" r="3.5" transform="rotate(90 135.5 543.5)" fill="#69FF93"/>
<circle cx="135.5" cy="445.5" r="4.5" transform="rotate(90 135.5 445.5)" fill="#1B1B21"/>
<g filter="url(#filter3_d_172_2)">
<circle cx="135.5" cy="438.5" r="3.5" transform="rotate(90 135.5 438.5)" fill="#E3FFC7"/>
</g>
<circle cx="135.5" cy="452.5" r="3.5" transform="rotate(90 135.5 452.5)" fill="#E3FFC7"/>
<line x1="174.5" y1="365" x2="174.5" y2="514" stroke="#69FF93"/>
<circle cx="174.5" cy="365.5" r="3.5" transform="rotate(90 174.5 365.5)" fill="#69FF93"/>
<circle cx="174.5" cy="513.5" r="3.5" transform="rotate(90 174.5 513.5)" fill="#69FF93"/>
<circle cx="174.5" cy="415.5" r="4.5" transform="rotate(90 174.5 415.5)" fill="#1B1B21"/>
<g filter="url(#filter4_d_172_2)">
<circle cx="174.5" cy="408.5" r="3.5" transform="rotate(90 174.5 408.5)" fill="#E3FFC7"/>
</g>
<circle cx="174.5" cy="422.5" r="3.5" transform="rotate(90 174.5 422.5)" fill="#E3FFC7"/>
<line x1="174.5" y1="3" x2="174.5" y2="152" stroke="#69FF93"/>
<circle cx="174.5" cy="3.5" r="3.5" transform="rotate(90 174.5 3.5)" fill="#69FF93"/>
<circle cx="174.5" cy="151.5" r="3.5" transform="rotate(90 174.5 151.5)" fill="#69FF93"/>
<circle cx="174.5" cy="53.5" r="4.5" transform="rotate(90 174.5 53.5)" fill="#1B1B21"/>
<g filter="url(#filter5_d_172_2)">
<circle cx="174.5" cy="46.5" r="3.5" transform="rotate(90 174.5 46.5)" fill="#E3FFC7"/>
</g>
<circle cx="174.5" cy="60.5" r="3.5" transform="rotate(90 174.5 60.5)" fill="#E3FFC7"/>
<line x1="219.5" y1="297" x2="219.5" y2="446" stroke="#69FF93"/>
<circle cx="219.5" cy="297.5" r="3.5" transform="rotate(90 219.5 297.5)" fill="#69FF93"/>
<circle cx="219.5" cy="445.5" r="3.5" transform="rotate(90 219.5 445.5)" fill="#69FF93"/>
<circle cx="219.5" cy="347.5" r="4.5" transform="rotate(90 219.5 347.5)" fill="#1B1B21"/>
<g filter="url(#filter6_d_172_2)">
<circle cx="219.5" cy="340.5" r="3.5" transform="rotate(90 219.5 340.5)" fill="#E3FFC7"/>
</g>
<circle cx="219.5" cy="354.5" r="3.5" transform="rotate(90 219.5 354.5)" fill="#E3FFC7"/>
<line x1="256.5" y1="240" x2="256.5" y2="91" stroke="#69FF93"/>
<circle cx="256.5" cy="239.5" r="3.5" transform="rotate(-90 256.5 239.5)" fill="#69FF93"/>
<circle cx="256.5" cy="91.5" r="3.5" transform="rotate(-90 256.5 91.5)" fill="#69FF93"/>
<circle cx="256.5" cy="189.5" r="4.5" transform="rotate(-90 256.5 189.5)" fill="#1B1B21"/>
<g filter="url(#filter7_d_172_2)">
<circle cx="256.5" cy="196.5" r="3.5" transform="rotate(-90 256.5 196.5)" fill="#E3FFC7"/>
</g>
<circle cx="256.5" cy="182.5" r="3.5" transform="rotate(-90 256.5 182.5)" fill="#E3FFC7"/>
<defs>
<filter id="filter0_d_172_2" x="32" y="332" width="15" height="15" filterUnits="userSpaceOnUse" color-interpolation-filters="sRGB">
<feFlood flood-opacity="0" result="BackgroundImageFix"/>
<feColorMatrix in="SourceAlpha" type="matrix" values="0 0 0 0 0 0 0 0 0 0 0 0 0 0 0 0 0 0 127 0" result="hardAlpha"/>
<feOffset/>
<feGaussianBlur stdDeviation="2"/>
<feComposite in2="hardAlpha" operator="out"/>
<feColorMatrix type="matrix" values="0 0 0 0 0.41 0 0 0 0 1 0 0 0 0 0.5752 0 0 0 1 0"/>
<feBlend mode="normal" in2="BackgroundImageFix" result="effect1_dropShadow_172_2"/>
<feBlend mode="normal" in="SourceGraphic" in2="effect1_dropShadow_172_2" result="shape"/>
</filter>
<filter id="filter1_d_172_2" x="83" y="172" width="27" height="27" filterUnits="userSpaceOnUse" color-interpolation-filters="sRGB">
<feFlood flood-opacity="0" result="BackgroundImageFix"/>
<feColorMatrix in="SourceAlpha" type="matrix" values="0 0 0 0 0 0 0 0 0 0 0 0 0 0 0 0 0 0 127 0" result="hardAlpha"/>
<feOffset dy="1"/>
<feGaussianBlur stdDeviation="5"/>
<feComposite in2="hardAlpha" operator="out"/>
<feColorMatrix type="matrix" values="0 0 0 0 0.890417 0 0 0 0 1 0 0 0 0 0.780833 0 0 0 1 0"/>
<feBlend mode="normal" in2="BackgroundImageFix" result="effect1_dropShadow_172_2"/>
<feBlend mode="normal" in="SourceGraphic" in2="effect1_dropShadow_172_2" result="shape"/>
</filter>
<filter id="filter2_d_172_2" x="122" y="307" width="27" height="27" filterUnits="userSpaceOnUse" color-interpolation-filters="sRGB">
<feFlood flood-opacity="0" result="BackgroundImageFix"/>
<feColorMatrix in="SourceAlpha" type="matrix" values="0 0 0 0 0 0 0 0 0 0 0 0 0 0 0 0 0 0 127 0" result="hardAlpha"/>
<feOffset dy="1"/>
<feGaussianBlur stdDeviation="5"/>
<feComposite in2="hardAlpha" operator="out"/>
<feColorMatrix type="matrix" values="0 0 0 0 0.890417 0 0 0 0 1 0 0 0 0 0.780833 0 0 0 1 0"/>
<feBlend mode="normal" in2="BackgroundImageFix" result="effect1_dropShadow_172_2"/>
<feBlend mode="normal" in="SourceGraphic" in2="effect1_dropShadow_172_2" result="shape"/>
</filter>
<filter id="filter3_d_172_2" x="128" y="431" width="15" height="15" filterUnits="userSpaceOnUse" color-interpolation-filters="sRGB">
<feFlood flood-opacity="0" result="BackgroundImageFix"/>
<feColorMatrix in="SourceAlpha" type="matrix" values="0 0 0 0 0 0 0 0 0 0 0 0 0 0 0 0 0 0 127 0" result="hardAlpha"/>
<feOffset/>
<feGaussianBlur stdDeviation="2"/>
<feComposite in2="hardAlpha" operator="out"/>
<feColorMatrix type="matrix" values="0 0 0 0 0.41 0 0 0 0 1 0 0 0 0 0.5752 0 0 0 1 0"/>
<feBlend mode="normal" in2="BackgroundImageFix" result="effect1_dropShadow_172_2"/>
<feBlend mode="normal" in="SourceGraphic" in2="effect1_dropShadow_172_2" result="shape"/>
</filter>
<filter id="filter4_d_172_2" x="167" y="401" width="15" height="15" filterUnits="userSpaceOnUse" color-interpolation-filters="sRGB">
<feFlood flood-opacity="0" result="BackgroundImageFix"/>
<feColorMatrix in="SourceAlpha" type="matrix" values="0 0 0 0 0 0 0 0 0 0 0 0 0 0 0 0 0 0 127 0" result="hardAlpha"/>
<feOffset/>
<feGaussianBlur stdDeviation="2"/>
<feComposite in2="hardAlpha" operator="out"/>
<feColorMatrix type="matrix" values="0 0 0 0 0.41 0 0 0 0 1 0 0 0 0 0.5752 0 0 0 1 0"/>
<feBlend mode="normal" in2="BackgroundImageFix" result="effect1_dropShadow_172_2"/>
<feBlend mode="normal" in="SourceGraphic" in2="effect1_dropShadow_172_2" result="shape"/>
</filter>
<filter id="filter5_d_172_2" x="167" y="39" width="15" height="15" filterUnits="userSpaceOnUse" color-interpolation-filters="sRGB">
<feFlood flood-opacity="0" result="BackgroundImageFix"/>
<feColorMatrix in="SourceAlpha" type="matrix" values="0 0 0 0 0 0 0 0 0 0 0 0 0 0 0 0 0 0 127 0" result="hardAlpha"/>
<feOffset/>
<feGaussianBlur stdDeviation="2"/>
<feComposite in2="hardAlpha" operator="out"/>
<feColorMatrix type="matrix" values="0 0 0 0 0.41 0 0 0 0 1 0 0 0 0 0.5752 0 0 0 1 0"/>
<feBlend mode="normal" in2="BackgroundImageFix" result="effect1_dropShadow_172_2"/>
<feBlend mode="normal" in="SourceGraphic" in2="effect1_dropShadow_172_2" result="shape"/>
</filter>
<filter id="filter6_d_172_2" x="212" y="333" width="15" height="15" filterUnits="userSpaceOnUse" color-interpolation-filters="sRGB">
<feFlood flood-opacity="0" result="BackgroundImageFix"/>
<feColorMatrix in="SourceAlpha" type="matrix" values="0 0 0 0 0 0 0 0 0 0 0 0 0 0 0 0 0 0 127 0" result="hardAlpha"/>
<feOffset/>
<feGaussianBlur stdDeviation="2"/>
<feComposite in2="hardAlpha" operator="out"/>
<feColorMatrix type="matrix" values="0 0 0 0 0.41 0 0 0 0 1 0 0 0 0 0.5752 0 0 0 1 0"/>
<feBlend mode="normal" in2="BackgroundImageFix" result="effect1_dropShadow_172_2"/>
<feBlend mode="normal" in="SourceGraphic" in2="effect1_dropShadow_172_2" result="shape"/>
</filter>
<filter id="filter7_d_172_2" x="249" y="189" width="15" height="15" filterUnits="userSpaceOnUse" color-interpolation-filters="sRGB">
<feFlood flood-opacity="0" result="BackgroundImageFix"/>
<feColorMatrix in="SourceAlpha" type="matrix" values="0 0 0 0 0 0 0 0 0 0 0 0 0 0 0 0 0 0 127 0" result="hardAlpha"/>
<feOffset/>
<feGaussianBlur stdDeviation="2"/>
<feComposite in2="hardAlpha" operator="out"/>
<feColorMatrix type="matrix" values="0 0 0 0 0.41 0 0 0 0 1 0 0 0 0 0.5752 0 0 0 1 0"/>
<feBlend mode="normal" in2="BackgroundImageFix" result="effect1_dropShadow_172_2"/>
<feBlend mode="normal" in="SourceGraphic" in2="effect1_dropShadow_172_2" result="shape"/>
</filter>
</defs>
</svg>
