<svg width="151" height="151" viewBox="0 0 151 151" fill="none" xmlns="http://www.w3.org/2000/svg">
<path d="M64.1875 137.375L64.7155 136.696C64.8069 136.578 64.8865 136.451 64.9484 136.316C65.0605 136.077 67.7384 130.391 68.7382 122.41C70.0771 111.74 67.7355 102.052 61.9638 94.3956C57.596 88.6004 55.393 86.9341 53.2341 87.8011C50.627 88.8481 51.0429 92.3577 51.7271 98.1736C52.2019 102.208 52.8507 107.694 51.7861 109.82C51.2552 109.587 50.046 108.744 48.2205 106.481C41.6349 98.3328 34.3444 81.8054 35.2262 74.1345C36.0019 67.3778 38.6444 63.2106 40.5761 60.167C42.207 57.5952 43.7495 55.168 41.8708 52.9384C41.3547 52.325 40.1308 51.3842 37.7508 51.9917C32.4599 53.3395 23.0253 61.6799 21.3325 70.0026C17.6489 88.0931 24.1637 104.724 29.3986 118.087C30.5989 121.151 31.7343 124.047 32.6634 126.749C33.035 127.828 34.2087 128.4 35.2882 128.028C36.3676 127.657 36.9397 126.483 36.5681 125.404C35.6096 122.62 34.4594 119.685 33.2443 116.58C28.2071 103.721 21.94 87.7215 25.3817 70.8254C26.0512 67.5371 28.4991 63.7296 32.0971 60.3734C34.6275 58.014 36.866 56.6987 38.1813 56.1796C37.8805 56.7193 37.4617 57.377 37.096 57.9551C35.0729 61.1432 32.0145 65.9651 31.1327 73.6626C30.2273 81.5518 35.8662 93.6111 37.6151 97.1207C41.1689 104.249 46.445 112.365 50.5975 113.775C52.4968 114.421 54.2339 113.799 55.2455 112.115C57.1625 108.918 56.4901 103.211 55.8413 97.6899C55.6614 96.1563 55.4372 94.2717 55.3694 92.8679C56.0978 93.6259 57.1596 94.8616 58.6814 96.8788C63.8425 103.724 65.8568 112.1 64.6712 121.767C63.928 127.828 62.0877 132.544 61.4536 134.039H37.0105C35.8692 134.039 34.946 134.962 34.946 136.103C34.946 137.245 35.8692 138.168 37.0105 138.168H62.5714C63.1937 138.171 63.7953 137.876 64.1875 137.375Z" fill="#69FF93"/>
<path d="M86.054 136.316C86.1189 136.451 86.1956 136.578 86.287 136.696L86.8149 137.375C87.2071 137.879 87.8088 138.171 88.4458 138.171H114.007C115.089 138.171 115.989 137.333 116.065 136.254C116.416 131.343 118.823 125.2 121.607 118.087C126.842 104.724 133.357 88.0931 129.673 70.0026C127.977 61.6829 118.546 53.3425 113.255 51.9917C110.875 51.3842 109.651 52.325 109.135 52.9384C107.256 55.168 108.798 57.5982 110.429 60.167C112.361 63.2106 115.004 67.3749 115.779 74.1345C116.57 81.0415 110.875 94.6197 105.141 103.24C104.51 104.19 104.767 105.47 105.716 106.104C106.666 106.735 107.946 106.479 108.58 105.529C113.877 97.566 120.884 82.4159 119.882 73.6685C119 65.9681 115.941 61.1491 113.918 57.961C113.553 57.3829 113.134 56.7252 112.833 56.1855C114.148 56.7046 116.387 58.0199 118.917 60.3793C122.515 63.7355 124.963 67.543 125.633 70.8313C129.074 87.7274 122.804 103.73 117.77 116.586C115.189 123.171 112.924 128.96 112.166 134.048H89.5695C88.1745 130.762 80.999 111.938 92.3417 96.8877C93.8606 94.8704 94.9252 93.6347 95.6537 92.8768C95.5829 94.2776 95.3617 96.1651 95.1818 97.6987C94.53 103.22 93.8576 108.926 95.7776 112.123C96.5768 113.456 97.6739 113.875 98.4496 113.99C99.9684 114.217 101.599 113.515 103.44 111.852C104.286 111.088 104.351 109.782 103.584 108.935C102.817 108.089 101.514 108.024 100.667 108.791C99.9478 109.443 99.4759 109.711 99.2222 109.823C98.1605 107.694 98.8064 102.214 99.2842 98.1794C99.9714 92.3636 100.384 88.8511 97.7771 87.807C95.6183 86.9429 93.4182 88.6063 89.0474 94.4015C83.2758 102.058 80.9341 111.746 82.2731 122.416C83.264 130.391 85.9419 136.077 86.054 136.316Z" fill="#69FF93"/>
<path d="M82.2088 78.5996C81.1914 79.1158 80.7873 80.3574 81.3034 81.3749C81.8195 82.3923 83.0641 82.7964 84.0786 82.2803C90.6819 78.927 98.8247 72.2765 100.134 59.645C100.202 58.9903 99.9543 58.3444 99.4677 57.902C98.981 57.4596 98.3116 57.2768 97.6687 57.4095C97.4416 57.4567 92.0445 58.5862 86.4056 62.2492C82.6571 64.6852 79.6902 67.6698 77.5638 71.1057V59.1997C77.7762 55.4601 79.1682 53.5519 81.094 50.9124C83.2293 47.9867 85.8895 44.3445 87.485 37.228C87.7357 36.1161 87.0367 35.0102 85.9219 34.7624C84.8101 34.5147 83.7041 35.2107 83.4564 36.3255C82.0466 42.6044 79.7698 45.7247 77.7585 48.4793C76.9592 49.5764 76.1747 50.6469 75.4994 51.8384C74.824 50.6499 74.0395 49.5764 73.2403 48.4793C71.1581 45.6244 68.7958 42.3891 67.4008 35.6649C65.3098 25.5963 72.6829 19.3351 75.4964 17.3562C77.1893 18.5594 80.5897 21.3671 82.5333 25.6228C83.0081 26.6609 84.232 27.1181 85.2672 26.6432C86.3053 26.1684 86.7624 24.9445 86.2876 23.9093C83.0936 16.9108 76.7911 13.2508 76.5257 13.1004C75.8916 12.7377 75.113 12.7377 74.4789 13.1004C74.3315 13.183 70.8603 15.1914 67.7636 19.0254C63.5845 24.2013 62.0598 30.2472 63.3604 36.5054C64.9382 44.1026 67.6928 47.8806 69.9076 50.9153C71.8335 53.5519 73.2255 55.463 73.4379 59.2026V70.6485C71.3351 67.4073 68.4684 64.579 64.8881 62.2521C59.2492 58.5892 53.8521 57.4596 53.625 57.4124C52.9821 57.2827 52.3126 57.4655 51.826 57.905C51.3394 58.3473 51.0916 58.9932 51.1595 59.648C52.0619 68.3658 56.5035 75.5501 64.0004 80.4281C67.7695 82.8819 71.4029 84.1648 73.4408 84.7517V103.556C73.4408 104.697 74.3639 105.62 75.5053 105.62C76.6466 105.62 77.5697 104.697 77.5697 103.556V84.2032C77.726 83.9407 77.8263 83.6398 77.8528 83.3154C78.4515 75.9483 82.0525 70.0499 88.5497 65.7853C91.1066 64.1072 93.6459 63.013 95.5187 62.3465C93.5014 71.1293 87.3198 76.0014 82.2088 78.5996ZM66.1297 76.8891C60.6176 73.2645 57.1434 68.3835 55.772 62.3465C60.7916 64.1455 70.6214 69.0412 72.9984 80.2718C71.164 79.626 68.666 78.5554 66.1297 76.8891Z" fill="#69FF93"/>
<path d="M84.2582 29.5688C84.1844 29.6809 84.1225 29.8018 84.0694 29.9257C84.0163 30.0495 83.978 30.1793 83.9514 30.312C83.9249 30.4447 83.9102 30.5804 83.9102 30.7131C83.9102 30.8488 83.9249 30.9844 83.9514 31.1172C83.978 31.2499 84.0163 31.3796 84.0694 31.5035C84.1225 31.6303 84.1844 31.7483 84.2582 31.8604C84.3348 31.9724 84.4204 32.0786 84.5177 32.173C84.6121 32.2703 84.7182 32.3558 84.8303 32.4325C84.9424 32.5062 85.0603 32.5682 85.1872 32.6213C85.311 32.6714 85.4408 32.7127 85.5735 32.7392C85.7062 32.7658 85.8419 32.7805 85.9776 32.7805C86.1103 32.7805 86.2459 32.7658 86.3787 32.7392C86.5114 32.7127 86.6411 32.6714 86.765 32.6213C86.8889 32.5682 87.0098 32.5062 87.1219 32.4325C87.2339 32.3558 87.3401 32.2703 87.4345 32.173C87.8208 31.7896 88.0391 31.2587 88.0391 30.7131C88.0391 30.1705 87.8208 29.6396 87.4345 29.2533C87.0511 28.8699 86.5202 28.6516 85.9776 28.6516C85.4319 28.6516 84.9011 28.8699 84.5177 29.2533C84.4204 29.3506 84.3348 29.4567 84.2582 29.5688Z" fill="#69FF93"/>
</svg>
