<svg width="325" height="385" viewBox="0 0 325 385" fill="none" xmlns="http://www.w3.org/2000/svg">
<mask id="path-1-inside-1_1_309" fill="white">
<path d="M262.69 221.546C261.787 221.546 260.884 221.209 260.207 220.535C258.853 219.188 258.853 216.941 260.207 215.593L282.329 193.465V152.691C282.329 151.793 282.667 150.894 283.345 150.22L308.966 124.723C309.417 124.273 310.094 123.936 310.771 123.712C311.223 123.599 315.738 122.925 319.575 126.52C323.638 130.451 325.105 137.64 323.638 147.861C323.525 148.648 323.187 149.322 322.622 149.883L315.399 157.072V183.918C315.399 184.816 315.06 185.715 314.383 186.389L307.047 193.69C305.692 195.038 303.435 195.038 302.081 193.69C300.726 192.342 300.726 190.095 302.081 188.748L308.401 182.457V155.612C308.401 154.713 308.74 153.815 309.417 153.141L316.753 145.84C317.882 136.404 315.963 132.922 314.722 131.687C314.044 131.013 313.254 130.788 312.69 130.676L289.327 154.264V195.038C289.327 195.936 288.988 196.835 288.311 197.509L265.06 220.535C264.383 221.209 263.593 221.546 262.69 221.546Z"/>
</mask>
<path d="M262.69 221.546C261.787 221.546 260.884 221.209 260.207 220.535C258.853 219.188 258.853 216.941 260.207 215.593L282.329 193.465V152.691C282.329 151.793 282.667 150.894 283.345 150.22L308.966 124.723C309.417 124.273 310.094 123.936 310.771 123.712C311.223 123.599 315.738 122.925 319.575 126.52C323.638 130.451 325.105 137.64 323.638 147.861C323.525 148.648 323.187 149.322 322.622 149.883L315.399 157.072V183.918C315.399 184.816 315.06 185.715 314.383 186.389L307.047 193.69C305.692 195.038 303.435 195.038 302.081 193.69C300.726 192.342 300.726 190.095 302.081 188.748L308.401 182.457V155.612C308.401 154.713 308.74 153.815 309.417 153.141L316.753 145.84C317.882 136.404 315.963 132.922 314.722 131.687C314.044 131.013 313.254 130.788 312.69 130.676L289.327 154.264V195.038C289.327 195.936 288.988 196.835 288.311 197.509L265.06 220.535C264.383 221.209 263.593 221.546 262.69 221.546Z" stroke="#69FF93" stroke-width="2.07287" mask="url(#path-1-inside-1_1_309)"/>
<mask id="path-2-inside-2_1_309" fill="white">
<path d="M315.401 75.0755C310.322 75.0755 306.146 79.2315 306.146 84.2862C306.146 85.5217 306.372 86.7573 306.823 87.8805L295.085 99.6746V53.6215C298.358 52.1613 300.616 49.0162 300.616 45.1972C300.616 40.1425 296.439 35.9865 291.36 35.9865C286.281 35.9865 282.105 40.1425 282.105 45.1972C282.105 49.1285 284.588 52.3859 287.974 53.7338V106.639L282.105 112.592C281.88 112.817 281.767 113.041 281.654 113.266L260.548 134.271C259.871 134.945 259.532 135.843 259.532 136.742V193.578L221.496 231.207C215.288 234.352 209.419 234.352 205.469 233.566L238.313 201.104C238.99 200.43 239.329 199.531 239.329 198.633V138.202L263.821 113.828C264.498 113.154 264.837 112.255 264.837 111.356V33.1784C268.11 31.8305 270.48 28.4608 270.48 24.7541C270.48 19.6995 266.304 15.5435 261.225 15.5435C256.146 15.5435 251.97 19.6995 251.97 24.7541C251.97 28.5731 254.34 31.9429 257.726 33.2908V109.896L233.234 134.271C232.557 134.945 232.218 135.843 232.218 136.742V197.172L196.439 232.667C195.649 233.453 195.311 234.577 195.424 235.7C195.649 236.823 196.326 237.722 197.342 238.283C197.681 238.396 202.76 240.867 210.096 240.867C214.498 240.867 219.803 239.968 225.22 237.048C225.559 236.935 225.785 236.711 226.01 236.486L265.514 197.509C266.191 196.835 266.53 195.937 266.53 195.038V138.202L294.069 110.795C294.295 110.57 294.521 110.233 294.634 110.008L311.677 92.8228C312.805 93.2721 313.934 93.4968 315.288 93.4968C320.367 93.4968 324.543 89.3408 324.543 84.2862C324.543 79.2315 320.48 75.0755 315.401 75.0755ZM291.473 41.1535C293.618 41.1535 295.424 42.9507 295.424 45.0848C295.424 47.219 293.618 49.0162 291.473 49.0162C289.329 49.0162 287.523 47.219 287.523 45.0848C287.523 42.9507 289.329 41.1535 291.473 41.1535ZM261.451 20.7104C263.595 20.7104 265.401 22.5076 265.401 24.6418C265.401 26.5513 264.047 28.2361 262.128 28.5731C261.902 28.5731 261.676 28.4608 261.451 28.4608C261.225 28.4608 260.999 28.4608 260.773 28.5731C258.855 28.2361 257.387 26.6636 257.387 24.6418C257.387 22.5076 259.193 20.7104 261.451 20.7104ZM315.401 88.2175C313.257 88.2175 311.451 86.4203 311.451 84.2862C311.451 82.152 313.257 80.3548 315.401 80.3548C317.546 80.3548 319.351 82.152 319.351 84.2862C319.351 86.4203 317.546 88.2175 315.401 88.2175Z"/>
</mask>
<path d="M315.401 75.0755C310.322 75.0755 306.146 79.2315 306.146 84.2862C306.146 85.5217 306.372 86.7573 306.823 87.8805L295.085 99.6746V53.6215C298.358 52.1613 300.616 49.0162 300.616 45.1972C300.616 40.1425 296.439 35.9865 291.36 35.9865C286.281 35.9865 282.105 40.1425 282.105 45.1972C282.105 49.1285 284.588 52.3859 287.974 53.7338V106.639L282.105 112.592C281.88 112.817 281.767 113.041 281.654 113.266L260.548 134.271C259.871 134.945 259.532 135.843 259.532 136.742V193.578L221.496 231.207C215.288 234.352 209.419 234.352 205.469 233.566L238.313 201.104C238.99 200.43 239.329 199.531 239.329 198.633V138.202L263.821 113.828C264.498 113.154 264.837 112.255 264.837 111.356V33.1784C268.11 31.8305 270.48 28.4608 270.48 24.7541C270.48 19.6995 266.304 15.5435 261.225 15.5435C256.146 15.5435 251.97 19.6995 251.97 24.7541C251.97 28.5731 254.34 31.9429 257.726 33.2908V109.896L233.234 134.271C232.557 134.945 232.218 135.843 232.218 136.742V197.172L196.439 232.667C195.649 233.453 195.311 234.577 195.424 235.7C195.649 236.823 196.326 237.722 197.342 238.283C197.681 238.396 202.76 240.867 210.096 240.867C214.498 240.867 219.803 239.968 225.22 237.048C225.559 236.935 225.785 236.711 226.01 236.486L265.514 197.509C266.191 196.835 266.53 195.937 266.53 195.038V138.202L294.069 110.795C294.295 110.57 294.521 110.233 294.634 110.008L311.677 92.8228C312.805 93.2721 313.934 93.4968 315.288 93.4968C320.367 93.4968 324.543 89.3408 324.543 84.2862C324.543 79.2315 320.48 75.0755 315.401 75.0755ZM291.473 41.1535C293.618 41.1535 295.424 42.9507 295.424 45.0848C295.424 47.219 293.618 49.0162 291.473 49.0162C289.329 49.0162 287.523 47.219 287.523 45.0848C287.523 42.9507 289.329 41.1535 291.473 41.1535ZM261.451 20.7104C263.595 20.7104 265.401 22.5076 265.401 24.6418C265.401 26.5513 264.047 28.2361 262.128 28.5731C261.902 28.5731 261.676 28.4608 261.451 28.4608C261.225 28.4608 260.999 28.4608 260.773 28.5731C258.855 28.2361 257.387 26.6636 257.387 24.6418C257.387 22.5076 259.193 20.7104 261.451 20.7104ZM315.401 88.2175C313.257 88.2175 311.451 86.4203 311.451 84.2862C311.451 82.152 313.257 80.3548 315.401 80.3548C317.546 80.3548 319.351 82.152 319.351 84.2862C319.351 86.4203 317.546 88.2175 315.401 88.2175Z" stroke="#69FF93" stroke-width="2.07287" mask="url(#path-2-inside-2_1_309)"/>
<mask id="path-3-inside-3_1_309" fill="white">
<path d="M134.246 265.13C133.343 265.13 132.44 264.793 131.763 264.119L59.8667 192.456C59.1895 191.782 58.8509 190.883 58.8509 189.984V146.403L11.5597 99.3385C10.7696 98.5523 10.3181 97.3167 10.6567 96.1934C13.1398 84.1747 18.6703 75.5257 27.5868 69.9095C28.9412 69.0109 30.747 69.2355 31.9886 70.3587L85.3747 123.601C86.0519 124.275 86.3905 125.173 86.3905 126.072V171.788L137.519 222.783C138.196 223.457 138.535 224.356 138.535 225.254V261.535C138.535 263.332 137.068 264.905 135.262 265.017C134.923 265.017 134.585 265.13 134.246 265.13ZM65.8487 188.524L131.65 254.01V226.602L80.4085 175.607C79.7313 174.933 79.3927 174.034 79.3927 173.136V127.42L29.054 77.3229C23.5236 81.5912 19.7989 87.7691 17.8802 95.7441L64.8329 142.471C65.5101 143.145 65.8487 144.044 65.8487 144.942V188.524V188.524Z"/>
</mask>
<path d="M134.246 265.13C133.343 265.13 132.44 264.793 131.763 264.119L59.8667 192.456C59.1895 191.782 58.8509 190.883 58.8509 189.984V146.403L11.5597 99.3385C10.7696 98.5523 10.3181 97.3167 10.6567 96.1934C13.1398 84.1747 18.6703 75.5257 27.5868 69.9095C28.9412 69.0109 30.747 69.2355 31.9886 70.3587L85.3747 123.601C86.0519 124.275 86.3905 125.173 86.3905 126.072V171.788L137.519 222.783C138.196 223.457 138.535 224.356 138.535 225.254V261.535C138.535 263.332 137.068 264.905 135.262 265.017C134.923 265.017 134.585 265.13 134.246 265.13ZM65.8487 188.524L131.65 254.01V226.602L80.4085 175.607C79.7313 174.933 79.3927 174.034 79.3927 173.136V127.42L29.054 77.3229C23.5236 81.5912 19.7989 87.7691 17.8802 95.7441L64.8329 142.471C65.5101 143.145 65.8487 144.044 65.8487 144.942V188.524V188.524Z" stroke="#69FF93" stroke-width="2.07287" mask="url(#path-3-inside-3_1_309)"/>
<mask id="path-4-inside-4_1_309" fill="white">
<path d="M84.4762 249.628C83.5733 249.628 82.6704 249.291 81.9932 248.617L37.975 204.81C37.2978 204.136 36.9592 203.238 36.9592 202.339V157.746L5.58221 126.52C4.22781 125.172 4.22781 122.926 5.58221 121.578C6.93661 120.23 9.19396 120.23 10.5484 121.578L42.9412 153.815C43.6184 154.489 43.957 155.388 43.957 156.286V200.879L86.9593 243.675C88.3137 245.023 88.3137 247.269 86.9593 248.617C86.2821 249.291 85.3792 249.628 84.4762 249.628Z"/>
</mask>
<path d="M84.4762 249.628C83.5733 249.628 82.6704 249.291 81.9932 248.617L37.975 204.81C37.2978 204.136 36.9592 203.238 36.9592 202.339V157.746L5.58221 126.52C4.22781 125.172 4.22781 122.926 5.58221 121.578C6.93661 120.23 9.19396 120.23 10.5484 121.578L42.9412 153.815C43.6184 154.489 43.957 155.388 43.957 156.286V200.879L86.9593 243.675C88.3137 245.023 88.3137 247.269 86.9593 248.617C86.2821 249.291 85.3792 249.628 84.4762 249.628Z" stroke="#69FF93" stroke-width="2.07287" mask="url(#path-4-inside-4_1_309)"/>
<mask id="path-5-inside-5_1_309" fill="white">
<path d="M24.3176 205.484C23.4147 205.484 22.5117 205.147 21.8345 204.473L1.40559 184.03C0.954121 183.581 0.615517 183.019 0.50265 182.458C0.276916 182.008 0.164062 181.447 0.164062 180.998V148.873C0.164062 147.412 1.06699 146.177 2.30853 145.615C3.66293 145.054 5.1302 145.391 6.146 146.402L26.8007 166.957C27.4779 167.631 27.8165 168.53 27.8165 169.428V202.002C27.8165 203.462 26.9135 204.698 25.672 205.26C25.2205 205.484 24.7691 205.484 24.3176 205.484ZM7.16181 179.987L20.8187 193.578V170.888L7.16181 157.297V179.987Z"/>
</mask>
<path d="M24.3176 205.484C23.4147 205.484 22.5117 205.147 21.8345 204.473L1.40559 184.03C0.954121 183.581 0.615517 183.019 0.50265 182.458C0.276916 182.008 0.164062 181.447 0.164062 180.998V148.873C0.164062 147.412 1.06699 146.177 2.30853 145.615C3.66293 145.054 5.1302 145.391 6.146 146.402L26.8007 166.957C27.4779 167.631 27.8165 168.53 27.8165 169.428V202.002C27.8165 203.462 26.9135 204.698 25.672 205.26C25.2205 205.484 24.7691 205.484 24.3176 205.484ZM7.16181 179.987L20.8187 193.578V170.888L7.16181 157.297V179.987Z" stroke="#69FF93" stroke-width="2.07287" mask="url(#path-5-inside-5_1_309)"/>
<mask id="path-6-inside-6_1_309" fill="white">
<path d="M189.103 196.386V163.475C188.652 163.587 188.2 163.587 187.749 163.587C186.169 163.587 184.589 163.25 183.234 162.464V195.151L160.661 217.616C160.096 218.177 159.758 218.963 159.758 219.637V376.443C159.758 378.015 161.112 379.363 162.692 379.363C164.272 379.363 165.627 378.015 165.627 376.443V220.873L188.2 198.408C188.765 197.846 189.103 197.172 189.103 196.386Z"/>
</mask>
<path d="M189.103 196.386V163.475C188.652 163.587 188.2 163.587 187.749 163.587C186.169 163.587 184.589 163.25 183.234 162.464V195.151L160.661 217.616C160.096 218.177 159.758 218.963 159.758 219.637V376.443C159.758 378.015 161.112 379.363 162.692 379.363C164.272 379.363 165.627 378.015 165.627 376.443V220.873L188.2 198.408C188.765 197.846 189.103 197.172 189.103 196.386Z" stroke="#69FF93" stroke-width="2.07287" mask="url(#path-6-inside-6_1_309)"/>
<mask id="path-7-inside-7_1_309" fill="white">
<path d="M237.861 14.308C237.184 13.7463 236.281 13.5217 235.378 13.7463C235.265 13.7463 229.735 14.8696 222.624 12.3985C217.432 10.4889 214.046 3.97411 214.046 3.97411C213.256 2.96319 212.015 2.51389 210.773 2.85087C209.532 3.18784 208.741 4.42341 208.741 5.65898V80.0179L184.136 104.505C183.572 105.066 183.233 105.853 183.233 106.526V143.706C183.233 145.503 186.055 145.503 187.748 145.166C188.2 145.054 188.651 145.278 189.103 145.278V107.762L213.708 83.2753C214.272 82.7136 214.611 81.9274 214.611 81.2534V13.2971C216.642 15.0943 217.884 17.0038 220.705 18.0147C225.784 19.8119 230.186 20.1489 233.121 20.0365V96.1926L208.516 120.679C207.951 121.241 207.613 122.027 207.613 122.701V203.35L174.317 236.149C173.753 236.711 173.414 237.497 173.414 238.283L173.64 358.807C173.64 359.594 173.978 360.38 174.543 360.829L188.087 374.308C189.215 375.432 191.134 375.432 192.263 374.308C193.391 373.185 193.391 371.276 192.263 370.152L179.509 357.235L179.283 239.182L212.805 206.383C213.369 205.821 213.708 205.035 213.708 204.361V123.712L238.313 99.2254C238.877 98.6638 239.216 97.8775 239.216 97.2035V16.5545C239.103 15.6559 238.651 14.8696 237.861 14.308Z"/>
</mask>
<path d="M237.861 14.308C237.184 13.7463 236.281 13.5217 235.378 13.7463C235.265 13.7463 229.735 14.8696 222.624 12.3985C217.432 10.4889 214.046 3.97411 214.046 3.97411C213.256 2.96319 212.015 2.51389 210.773 2.85087C209.532 3.18784 208.741 4.42341 208.741 5.65898V80.0179L184.136 104.505C183.572 105.066 183.233 105.853 183.233 106.526V143.706C183.233 145.503 186.055 145.503 187.748 145.166C188.2 145.054 188.651 145.278 189.103 145.278V107.762L213.708 83.2753C214.272 82.7136 214.611 81.9274 214.611 81.2534V13.2971C216.642 15.0943 217.884 17.0038 220.705 18.0147C225.784 19.8119 230.186 20.1489 233.121 20.0365V96.1926L208.516 120.679C207.951 121.241 207.613 122.027 207.613 122.701V203.35L174.317 236.149C173.753 236.711 173.414 237.497 173.414 238.283L173.64 358.807C173.64 359.594 173.978 360.38 174.543 360.829L188.087 374.308C189.215 375.432 191.134 375.432 192.263 374.308C193.391 373.185 193.391 371.276 192.263 370.152L179.509 357.235L179.283 239.182L212.805 206.383C213.369 205.821 213.708 205.035 213.708 204.361V123.712L238.313 99.2254C238.877 98.6638 239.216 97.8775 239.216 97.2035V16.5545C239.103 15.6559 238.651 14.8696 237.861 14.308Z" stroke="#69FF93" stroke-width="2.07287" mask="url(#path-7-inside-7_1_309)"/>
<mask id="path-8-inside-8_1_309" fill="white">
<path d="M191.701 16.3299C191.701 12.8479 188.88 10.0397 185.381 10.0397C181.882 10.0397 179.06 12.8479 179.06 16.3299C179.06 18.5764 180.189 20.4859 181.995 21.6092V69.0102L163.823 87.0944V18.3518C167.096 16.8915 169.354 13.7464 169.354 9.92741C169.354 4.8728 165.178 0.716797 160.099 0.716797C155.019 0.716797 150.843 4.8728 150.843 9.92741C150.843 13.8588 153.326 17.2285 156.825 18.4641V171.563L138.992 152.13V19.0257C138.992 17.7901 138.315 16.6669 137.299 16.1053C136.284 15.4313 134.929 15.4313 133.913 15.9929C128.834 18.5764 126.351 22.0585 123.981 25.4282C122.965 26.8884 121.949 28.3486 120.708 29.8089C117.886 33.0663 111.001 30.9321 110.889 30.9321C109.873 30.5951 108.631 30.8198 107.728 31.3814C106.825 32.0554 106.261 33.0663 106.261 34.1895V99.3378L88.9923 82.1521V47.2192C88.9923 45.3097 87.4122 43.7371 85.4934 43.7371C83.5747 43.7371 81.9946 45.3097 81.9946 47.2192V75.188L66.1932 59.4626C66.7575 58.227 67.0961 56.8791 67.0961 55.4189C67.0961 50.3643 62.92 46.2083 57.841 46.2083C52.762 46.2083 48.5859 50.3643 48.5859 55.4189C48.5859 60.4735 52.762 64.6295 57.841 64.6295C58.8568 64.6295 59.8726 64.4049 60.8884 64.0679L105.245 108.324C105.471 108.548 105.809 108.773 106.148 108.998V165.497C106.148 166.396 106.487 167.294 107.051 167.856L143.507 206.271L143.846 357.46L134.591 366.558C133.236 367.906 133.236 370.153 134.591 371.5C135.268 372.174 136.171 372.511 137.074 372.511C137.977 372.511 138.88 372.174 139.557 371.5L149.828 361.391C150.505 360.717 150.843 359.819 150.843 358.92L150.505 204.811C150.505 203.912 150.166 203.126 149.602 202.452L113.146 164.037V38.3455C116.983 38.6825 122.288 38.3455 125.787 34.1895C127.254 32.5047 128.496 30.8198 129.512 29.3596C130.302 28.2363 130.979 27.2254 131.769 26.3268V153.703C131.769 154.602 132.108 155.388 132.672 156.062L157.503 183.132C158.518 184.143 159.986 184.592 161.34 184.031C162.694 183.469 163.597 182.233 163.597 180.773V96.979L187.751 72.9415C188.428 72.2676 188.767 71.369 188.767 70.4704V21.4969C190.685 20.3736 191.701 18.4641 191.701 16.3299ZM58.0668 59.3502C55.9223 59.3502 54.1164 57.5531 54.1164 55.4189C54.1164 53.2847 55.9223 51.4875 58.0668 51.4875C60.2112 51.4875 62.0171 53.2847 62.0171 55.4189C62.0171 57.5531 60.3241 59.3502 58.0668 59.3502ZM160.099 6.10838C162.243 6.10838 164.049 7.90558 164.049 10.0397C164.049 12.1739 162.243 13.9711 160.099 13.9711C157.954 13.9711 156.148 12.1739 156.148 10.0397C156.148 7.90558 157.954 6.10838 160.099 6.10838Z"/>
</mask>
<path d="M191.701 16.3299C191.701 12.8479 188.88 10.0397 185.381 10.0397C181.882 10.0397 179.06 12.8479 179.06 16.3299C179.06 18.5764 180.189 20.4859 181.995 21.6092V69.0102L163.823 87.0944V18.3518C167.096 16.8915 169.354 13.7464 169.354 9.92741C169.354 4.8728 165.178 0.716797 160.099 0.716797C155.019 0.716797 150.843 4.8728 150.843 9.92741C150.843 13.8588 153.326 17.2285 156.825 18.4641V171.563L138.992 152.13V19.0257C138.992 17.7901 138.315 16.6669 137.299 16.1053C136.284 15.4313 134.929 15.4313 133.913 15.9929C128.834 18.5764 126.351 22.0585 123.981 25.4282C122.965 26.8884 121.949 28.3486 120.708 29.8089C117.886 33.0663 111.001 30.9321 110.889 30.9321C109.873 30.5951 108.631 30.8198 107.728 31.3814C106.825 32.0554 106.261 33.0663 106.261 34.1895V99.3378L88.9923 82.1521V47.2192C88.9923 45.3097 87.4122 43.7371 85.4934 43.7371C83.5747 43.7371 81.9946 45.3097 81.9946 47.2192V75.188L66.1932 59.4626C66.7575 58.227 67.0961 56.8791 67.0961 55.4189C67.0961 50.3643 62.92 46.2083 57.841 46.2083C52.762 46.2083 48.5859 50.3643 48.5859 55.4189C48.5859 60.4735 52.762 64.6295 57.841 64.6295C58.8568 64.6295 59.8726 64.4049 60.8884 64.0679L105.245 108.324C105.471 108.548 105.809 108.773 106.148 108.998V165.497C106.148 166.396 106.487 167.294 107.051 167.856L143.507 206.271L143.846 357.46L134.591 366.558C133.236 367.906 133.236 370.153 134.591 371.5C135.268 372.174 136.171 372.511 137.074 372.511C137.977 372.511 138.88 372.174 139.557 371.5L149.828 361.391C150.505 360.717 150.843 359.819 150.843 358.92L150.505 204.811C150.505 203.912 150.166 203.126 149.602 202.452L113.146 164.037V38.3455C116.983 38.6825 122.288 38.3455 125.787 34.1895C127.254 32.5047 128.496 30.8198 129.512 29.3596C130.302 28.2363 130.979 27.2254 131.769 26.3268V153.703C131.769 154.602 132.108 155.388 132.672 156.062L157.503 183.132C158.518 184.143 159.986 184.592 161.34 184.031C162.694 183.469 163.597 182.233 163.597 180.773V96.979L187.751 72.9415C188.428 72.2676 188.767 71.369 188.767 70.4704V21.4969C190.685 20.3736 191.701 18.4641 191.701 16.3299ZM58.0668 59.3502C55.9223 59.3502 54.1164 57.5531 54.1164 55.4189C54.1164 53.2847 55.9223 51.4875 58.0668 51.4875C60.2112 51.4875 62.0171 53.2847 62.0171 55.4189C62.0171 57.5531 60.3241 59.3502 58.0668 59.3502ZM160.099 6.10838C162.243 6.10838 164.049 7.90558 164.049 10.0397C164.049 12.1739 162.243 13.9711 160.099 13.9711C157.954 13.9711 156.148 12.1739 156.148 10.0397C156.148 7.90558 157.954 6.10838 160.099 6.10838Z" stroke="#69FF93" stroke-width="2.07287" mask="url(#path-8-inside-8_1_309)"/>
<mask id="path-9-inside-9_1_309" fill="white">
<path d="M162.92 384.53C166.757 384.53 169.917 381.385 169.917 377.566C169.917 373.747 166.757 370.602 162.92 370.602C159.082 370.602 155.922 373.747 155.922 377.566C155.922 381.385 159.082 384.53 162.92 384.53Z"/>
</mask>
<path d="M162.92 384.53C166.757 384.53 169.917 381.385 169.917 377.566C169.917 373.747 166.757 370.602 162.92 370.602C159.082 370.602 155.922 373.747 155.922 377.566C155.922 381.385 159.082 384.53 162.92 384.53Z" fill="#1B1B21" stroke="white" stroke-width="4.14575" mask="url(#path-9-inside-9_1_309)"/>
<mask id="path-10-inside-10_1_309" fill="white">
<path d="M190.906 379.027C194.405 379.027 197.114 376.218 197.114 372.849C197.114 369.367 194.292 366.671 190.906 366.671C187.52 366.671 184.699 369.479 184.699 372.849C184.586 376.218 187.407 379.027 190.906 379.027Z"/>
</mask>
<path d="M190.906 379.027C194.405 379.027 197.114 376.218 197.114 372.849C197.114 369.367 194.292 366.671 190.906 366.671C187.52 366.671 184.699 369.479 184.699 372.849C184.586 376.218 187.407 379.027 190.906 379.027Z" fill="#1B1B21" stroke="white" stroke-width="4.14575" mask="url(#path-10-inside-10_1_309)"/>
<mask id="path-11-inside-11_1_309" fill="white">
<path d="M303.549 198.633C307.386 198.633 310.546 195.487 310.546 191.668C310.546 187.849 307.386 184.704 303.549 184.704C299.711 184.704 296.551 187.849 296.551 191.668C296.664 195.487 299.711 198.633 303.549 198.633Z"/>
</mask>
<path d="M303.549 198.633C307.386 198.633 310.546 195.487 310.546 191.668C310.546 187.849 307.386 184.704 303.549 184.704C299.711 184.704 296.551 187.849 296.551 191.668C296.664 195.487 299.711 198.633 303.549 198.633Z" fill="#1B1B21" stroke="white" stroke-width="4.14575" mask="url(#path-11-inside-11_1_309)"/>
<mask id="path-12-inside-12_1_309" fill="white">
<path d="M261.79 224.243C265.289 224.243 267.997 221.435 267.997 218.065C267.997 214.583 265.176 211.887 261.79 211.887C258.291 211.887 255.582 214.696 255.582 218.065C255.582 221.435 258.291 224.243 261.79 224.243Z"/>
</mask>
<path d="M261.79 224.243C265.289 224.243 267.997 221.435 267.997 218.065C267.997 214.583 265.176 211.887 261.79 211.887C258.291 211.887 255.582 214.696 255.582 218.065C255.582 221.435 258.291 224.243 261.79 224.243Z" fill="#1B1B21" stroke="white" stroke-width="4.14575" mask="url(#path-12-inside-12_1_309)"/>
<mask id="path-13-inside-13_1_309" fill="white">
<path d="M82.6647 252.661C86.1636 252.661 88.8724 249.853 88.8724 246.483C88.8724 243.001 86.0507 240.305 82.6647 240.305C79.1658 240.305 76.457 243.113 76.457 246.483C76.457 249.965 79.1658 252.661 82.6647 252.661Z"/>
</mask>
<path d="M82.6647 252.661C86.1636 252.661 88.8724 249.853 88.8724 246.483C88.8724 243.001 86.0507 240.305 82.6647 240.305C79.1658 240.305 76.457 243.113 76.457 246.483C76.457 249.965 79.1658 252.661 82.6647 252.661Z" fill="#1B1B21" stroke="white" stroke-width="4.14575" mask="url(#path-13-inside-13_1_309)"/>
<mask id="path-14-inside-14_1_309" fill="white">
<path d="M134.813 378.352C138.311 378.352 141.02 375.544 141.02 372.174C141.02 368.692 138.199 365.996 134.813 365.996C131.314 365.996 128.605 368.804 128.605 372.174C128.492 375.656 131.314 378.352 134.813 378.352Z"/>
</mask>
<path d="M134.813 378.352C138.311 378.352 141.02 375.544 141.02 372.174C141.02 368.692 138.199 365.996 134.813 365.996C131.314 365.996 128.605 368.804 128.605 372.174C128.492 375.656 131.314 378.352 134.813 378.352Z" fill="#1B1B21" stroke="white" stroke-width="4.14575" mask="url(#path-14-inside-14_1_309)"/>
<mask id="path-15-inside-15_1_309" fill="white">
<path d="M186.055 170.776C189.554 170.776 192.375 167.968 192.375 164.486C192.375 161.004 189.554 158.196 186.055 158.196C182.556 158.196 179.734 161.004 179.734 164.486C179.734 167.968 182.556 170.776 186.055 170.776Z"/>
</mask>
<path d="M186.055 170.776C189.554 170.776 192.375 167.968 192.375 164.486C192.375 161.004 189.554 158.196 186.055 158.196C182.556 158.196 179.734 161.004 179.734 164.486C179.734 167.968 182.556 170.776 186.055 170.776Z" fill="#1B1B21" stroke="white" stroke-width="4.14575" mask="url(#path-15-inside-15_1_309)"/>
<mask id="path-16-inside-16_1_309" fill="white">
<path d="M186.055 147.637C189.554 147.637 192.375 144.829 192.375 141.347C192.375 137.865 189.554 135.057 186.055 135.057C182.556 135.057 179.734 137.865 179.734 141.347C179.734 144.829 182.556 147.637 186.055 147.637Z"/>
</mask>
<path d="M186.055 147.637C189.554 147.637 192.375 144.829 192.375 141.347C192.375 137.865 189.554 135.057 186.055 135.057C182.556 135.057 179.734 137.865 179.734 141.347C179.734 144.829 182.556 147.637 186.055 147.637Z" fill="#1B1B21" stroke="white" stroke-width="4.14575" mask="url(#path-16-inside-16_1_309)"/>
<mask id="path-17-inside-17_1_309" fill="white">
<path d="M8.51628 130.676C12.0152 130.676 14.724 127.868 14.724 124.498C14.724 121.016 11.9023 118.32 8.51628 118.32C5.0174 118.32 2.30859 121.128 2.30859 124.498C2.30859 127.868 5.13027 130.676 8.51628 130.676Z"/>
</mask>
<path d="M8.51628 130.676C12.0152 130.676 14.724 127.868 14.724 124.498C14.724 121.016 11.9023 118.32 8.51628 118.32C5.0174 118.32 2.30859 121.128 2.30859 124.498C2.30859 127.868 5.13027 130.676 8.51628 130.676Z" fill="#1B1B21" stroke="white" stroke-width="4.14575" mask="url(#path-17-inside-17_1_309)"/>
<mask id="path-18-inside-18_1_309" fill="white">
<path d="M85.6057 47.4439C89.1046 47.4439 91.9263 44.6358 91.9263 41.1537C91.9263 37.6716 89.1046 34.8635 85.6057 34.8635C82.1068 34.8635 79.2852 37.6716 79.2852 41.1537C79.2852 44.6358 82.1068 47.4439 85.6057 47.4439Z"/>
</mask>
<path d="M85.6057 47.4439C89.1046 47.4439 91.9263 44.6358 91.9263 41.1537C91.9263 37.6716 89.1046 34.8635 85.6057 34.8635C82.1068 34.8635 79.2852 37.6716 79.2852 41.1537C79.2852 44.6358 82.1068 47.4439 85.6057 47.4439Z" fill="#1B1B21" stroke="white" stroke-width="4.14575" mask="url(#path-18-inside-18_1_309)"/>
</svg>
