<svg width="159" height="154" viewBox="0 0 159 154" fill="none" xmlns="http://www.w3.org/2000/svg">
<path d="M25.0964 70.0086C14.9232 58.1495 10.6368 47.1334 14.7424 40.0222C20.7511 29.6148 42.9915 30.5924 69.2232 40.953M86.7985 49.034C89.1812 50.2825 91.5739 51.5987 93.9687 52.9813C129.884 73.7173 152.644 101.535 144.805 115.114C139.632 124.074 122.427 124.595 101.003 117.956M38.0791 82.85C45.8559 89.5338 55.1641 96.142 65.5784 102.155C71.5072 105.578 77.4239 108.594 83.2062 111.183" stroke="#7CF99F" stroke-width="4" stroke-linecap="round"/>
<path d="M65.6106 52.2576C101.526 31.5217 136.997 25.7197 144.837 39.2985C148.738 46.055 145.063 56.3367 135.961 67.5172M66.6811 114.451C41.5786 123.872 20.5857 124.455 14.7746 114.39C8.66938 103.816 21.1213 84.6061 43.892 66.8305" stroke="#7CF99F" stroke-width="4" stroke-linecap="round"/>
<path d="M59.0533 26.7881C64.249 11.5664 71.7682 2 80.1321 2C88.496 2 96.0152 11.5664 101.211 26.7881" stroke="#7CF99F" stroke-width="4" stroke-linecap="round"/>
<path d="M101.212 127.212C96.0166 142.434 88.4975 152 80.1335 152C71.7696 152 64.2504 142.434 59.0547 127.212" stroke="#7CF99F" stroke-width="3" stroke-linecap="round"/>
<circle cx="91.4687" cy="114.5" r="4.44915" fill="#7CF99F"/>
<circle cx="54.6054" cy="58.5678" r="4.44915" fill="#7CF99F"/>
<path d="M94.8775 102.961C104.533 97.3863 113.247 91.2862 120.705 85.0576" stroke="#7CF99F" stroke-width="3" stroke-linecap="round"/>
</svg>
