<svg width="133" height="140" viewBox="0 0 133 140" fill="none" xmlns="http://www.w3.org/2000/svg">
<path d="M115.997 18.1807C118.867 15.9579 121.453 13.1957 123.498 9.78851C131.497 30.2885 104.998 48.7886 104.998 48.7886C104.998 48.7886 115.997 48.2885 124.997 38.2885C130.497 64.7885 106.497 66.2885 105.497 71.7885C104.497 77.2885 110.497 76.2885 115.997 74.2885C117.497 82.7884 105.497 100.68 100.998 105.289C101.998 100.18 107.998 72.2886 88.9977 52.2886C69.9977 32.2886 44.9976 36.6796 40.4974 37.1796C44.4976 34.1796 68.9977 21.7886 78.4977 25.7886C74.9977 29.7886 73.9978 33.0386 76.9977 35.2886C79.9976 37.5385 85.9978 31.7885 86.9977 26.2886C92.3886 26.9624 100.894 26.9381 109.997 21.6796" stroke="#69FF93" stroke-width="3" stroke-linecap="round"/>
<circle cx="48" cy="92.6797" r="6" fill="#69FF93"/>
<rect x="27.0078" y="68.9255" width="22.3397" height="3" rx="1.5" transform="rotate(45.9326 27.0078 68.9255)" fill="#69FF93"/>
<rect x="54.3203" y="86.1023" width="19" height="3" rx="1.5" transform="rotate(-38.6932 54.3203 86.1023)" fill="#69FF93"/>
<circle cx="16" cy="59.6797" r="2" fill="#69FF93"/>
<path d="M21.5 54.8352C28.8699 49.6945 37.8329 46.6797 47.5 46.6797C72.629 46.6797 93 67.0507 93 92.1797C93 117.309 72.629 137.68 47.5 137.68C22.371 137.68 2 117.309 2 92.1797C2 81.8467 5.44443 72.3182 11.2478 64.6797" stroke="#69FF93" stroke-width="4" stroke-linecap="round"/>
</svg>
