<svg width="300" height="299" viewBox="0 0 300 299" fill="none" xmlns="http://www.w3.org/2000/svg">
<g clip-path="url(#clip0_1_233)">
<path d="M176.247 263.76L167.06 265.584L164.722 253.867L166.253 253.521L168.35 263.905L174.425 262.673L172.403 252.313L173.934 251.967L176.247 263.76Z" fill="white"/>
<path d="M163.427 259.982C163.549 261.946 163.189 263.589 162.221 264.785C161.252 265.981 159.951 266.652 158.242 266.773C157.136 266.837 156.103 266.673 155.243 266.23C154.307 265.762 153.596 265.115 153.058 264.189C152.52 263.263 152.182 262.234 152.144 261.05C152.031 259.841 152.22 258.73 152.612 257.768C153.005 256.805 153.675 256.016 154.525 255.451C155.374 254.887 156.326 254.522 157.332 254.51C158.438 254.447 159.471 254.611 160.407 255.078C161.343 255.546 162.054 256.193 162.592 257.119C163.003 257.92 163.341 258.95 163.427 259.982ZM161.818 260.052C161.702 258.591 161.213 257.513 160.374 256.742C159.536 255.971 158.552 255.655 157.37 255.694C156.164 255.81 155.263 256.274 154.543 257.215C153.848 258.081 153.534 259.319 153.702 260.88C153.813 261.836 154.048 262.665 154.407 263.366C154.767 264.068 155.351 264.59 155.984 264.961C156.617 265.331 157.398 265.498 158.177 265.413C159.283 265.349 160.184 264.885 160.955 264.044C161.65 263.179 161.913 261.84 161.818 260.052Z" fill="white"/>
<path d="M148.738 266.988L141.465 266.748L141.756 256.21L140.674 256.197L140.78 251.962L142.189 251.996L142.119 254.819L149.97 255.078L150.04 252.254L151.45 252.288L151.344 256.523L150.438 256.483C149.396 257.907 148.874 260.837 148.719 265.224L148.738 266.988ZM143.061 265.418L147.188 265.57L147.207 264.99C147.196 263.982 147.383 262.619 147.616 260.852C147.849 259.085 148.236 257.619 148.828 256.553L143.292 256.368L143.061 265.418Z" fill="white"/>
<path d="M136.506 266.329L129.301 265.357L130.749 254.855L129.716 254.691L130.301 250.525L131.661 250.711L131.263 253.513L139.098 254.603L139.496 251.801L140.856 251.986L140.272 256.152L139.314 256.012C138.146 257.311 137.32 260.144 136.663 264.537L136.506 266.329ZM131.024 264.151L135.181 264.731L135.3 264.1C135.465 263.065 135.727 261.726 136.112 260.007C136.496 258.289 137.11 256.895 137.778 255.854L132.337 255.113L131.024 264.151Z" fill="white"/>
<path d="M128.262 252.969L125.367 264.597L116.994 262.581L117.356 261.19L124.242 262.897L125.135 259.333L118.704 257.772L119.066 256.381L125.497 257.942L126.436 253.974L119.324 252.195L119.686 250.804L128.262 252.969Z" fill="white"/>
<path d="M117.77 250.273L113.739 261.536L109.471 260C108.714 259.757 108.132 259.487 107.778 259.289C107.272 259.043 106.891 258.67 106.61 258.245C106.329 257.82 106.148 257.343 106.066 256.815C105.985 256.286 106.08 255.731 106.275 255.124C106.592 254.137 107.214 253.499 108.039 253.01C108.864 252.522 110.097 252.583 111.663 253.169L114.591 254.192L116.228 249.611L117.77 250.273ZM114.205 255.658L111.276 254.635C110.291 254.319 109.561 254.252 109.009 254.41C108.458 254.568 108.136 255.051 107.841 255.71C107.695 256.165 107.624 256.645 107.754 257.021C107.859 257.474 108.089 257.798 108.444 257.996C108.646 258.145 109.076 258.366 109.834 258.609L112.687 259.608L114.205 255.658Z" fill="white"/>
<path d="M95.9756 254.163L98.3156 249.473C97.5828 249.154 97.0527 248.984 96.6767 249.114C96.3008 249.245 95.6516 249.706 94.7536 250.423C94.0802 250.96 93.6312 251.319 93.3066 251.549C92.982 251.78 92.5547 251.81 92.1274 251.841C91.7001 251.871 91.2457 251.725 90.7914 251.579C90.3614 251.358 90.0828 251.185 89.9314 251.136L90.5725 249.919C90.6483 249.943 90.724 249.967 90.8511 250.092C91.0025 250.14 91.0539 250.241 91.1296 250.265C91.5596 250.486 91.9626 250.532 92.3142 250.477C92.6901 250.347 93.1148 250.065 93.8126 249.451C94.5105 248.838 95.0595 248.428 95.4355 248.298C95.8114 248.167 96.2631 248.061 96.7661 248.055C96.182 247.533 95.8441 246.503 95.7036 245.119L95.2769 240.462L96.9969 241.348L97.3642 245.149C97.4506 246.182 97.5587 246.886 97.7399 247.363C97.921 247.839 98.3023 248.213 98.8594 248.559L101.397 243.513L102.838 244.227L100.301 249.273C100.731 249.494 101.209 249.564 101.712 249.558C102.164 249.452 102.84 249.167 103.765 248.626L103.965 248.523L107.19 246.544L108.91 247.43L104.936 249.923C103.687 250.694 102.759 250.982 101.977 250.815C102.283 251.164 102.488 251.565 102.618 251.941C102.748 252.318 102.78 252.998 102.691 254.058C102.65 254.965 102.631 255.545 102.761 255.922C102.891 256.298 103.169 256.471 103.599 256.693L104.181 256.963L103.54 258.181C103.464 258.156 103.161 258.059 102.755 257.762C102.325 257.54 101.92 257.242 101.714 256.842C101.484 256.517 101.279 256.116 101.249 255.688C101.195 255.336 101.239 254.68 101.255 253.848C101.293 252.688 101.285 251.932 101.155 251.556C101.025 251.179 100.644 250.806 99.9112 250.487L97.5711 255.178L95.9756 254.163Z" fill="white"/>
<path d="M87.804 249.7L86.487 248.859L89.3841 244.514C88.7513 244.144 88.297 243.998 87.8696 244.028C87.4423 244.059 86.8175 244.444 85.8438 245.136C85.1189 245.574 84.5942 245.908 84.2183 246.038C83.8423 246.169 83.4907 246.223 82.9877 246.229C82.509 246.159 82.1304 246.038 81.7004 245.816C81.219 245.494 80.9405 245.321 80.8648 245.297L81.6574 244.128C81.7331 244.153 81.7844 244.253 81.9359 244.301C82.063 244.426 82.1387 244.45 82.2144 244.474C82.6201 244.772 83.023 244.818 83.3746 244.763C83.7262 244.708 84.2266 244.45 84.9758 243.937C85.8495 243.297 86.5256 243.011 86.9016 242.881C87.2532 242.826 87.6805 242.796 88.0591 242.917C87.4994 242.319 87.3129 241.338 87.3726 239.851L87.549 235.136L89.1959 236.25L89.0602 240.057C89.0465 241.141 89.0545 241.897 89.1599 242.35C89.2653 242.802 89.6223 243.251 90.1036 243.573L93.1982 238.873L94.5152 239.715L87.804 249.7Z" fill="white"/>
<path d="M87.6009 235.236L76.525 241.644L75.2053 240.551L78.923 228.182L80.3184 229.3L79.1252 233.019L83.0328 236.198L86.3569 234.167L87.6009 235.236ZM81.8076 236.893L78.6111 234.361L77.5397 237.701C77.1988 238.763 76.8796 239.498 76.6604 240.181C77.2338 239.695 77.883 239.234 78.6079 238.797L81.8076 236.893Z" fill="white"/>
<path d="M70.7768 226.239L72.0917 222.14L72.9057 222.987L71.972 227.459L67.5014 228.118L66.6874 227.271L70.7768 226.239ZM68.6892 223.895L69.9284 219.772L70.7938 220.719L69.8087 225.091L65.3381 225.75L64.4728 224.802L68.6892 223.895Z" fill="white"/>
<path d="M66.5884 220.291L65.3958 219.322C65.7934 218.864 66.064 218.281 66.2317 217.498C66.3995 216.714 66.1914 216.061 65.7317 215.412C65.1963 214.738 64.6392 214.391 64.0091 214.273C63.3789 214.155 62.8272 214.312 62.3025 214.646C61.7534 215.056 61.5072 215.563 61.5396 216.243C61.5719 216.923 61.7801 217.576 62.3912 218.275L62.8753 218.848L61.7771 219.668C61.2931 219.094 60.9362 218.645 60.682 218.396C60.352 218.123 59.9734 218.001 59.5705 217.956C59.0918 217.886 58.6915 218.092 58.3669 218.323C57.9423 218.605 57.6961 219.112 57.7014 219.616C57.7068 220.12 57.8392 220.749 58.2475 221.298C58.6044 221.748 59.0858 222.069 59.5401 222.215C60.0702 222.385 60.4975 222.355 61.0493 222.197C61.5253 222.015 61.9012 221.884 62.05 221.681L62.6935 223.059C60.4432 224.347 58.6285 224.016 57.0736 222.094C56.3598 221.195 56.0732 220.266 56.1382 219.282C56.2033 218.298 56.5982 217.588 57.2717 217.051C58.1697 216.334 59.1244 216.222 60.3117 216.687C60.0792 216.11 60.0224 215.505 60.1659 214.798C60.285 214.167 60.7069 213.632 61.2804 213.146C62.0783 212.482 63.0573 212.293 64.0661 212.533C65.0748 212.773 66.0619 213.341 66.8028 214.416C68.1061 216.341 68.0761 218.257 66.5884 220.291Z" fill="white"/>
<path d="M62.855 209.801L52.7853 216.197L48.2048 208.868L49.3786 208.072L53.1398 214.051L56.2638 212.123L52.7081 206.545L53.882 205.75L57.4377 211.327L60.8862 209.169L56.9465 202.966L58.1204 202.171L62.855 209.801Z" fill="white"/>
<path d="M46.1283 205.188L42.7621 198.499L53.497 193.153L54.2162 194.556L44.7823 199.231L46.7101 203.114L52.1898 200.352C53.2906 199.784 54.1426 199.471 54.7187 199.238C55.2704 199.08 55.7735 199.074 56.2792 199.32C56.7092 199.541 57.1148 199.839 57.3473 200.416C57.5014 200.716 57.6312 201.093 57.7123 201.621L56.3329 202.016C56.3302 201.764 56.2518 201.488 56.2005 201.387C56.0463 201.087 55.7678 200.914 55.4649 200.817C55.1377 200.795 54.4859 201.005 53.6095 201.393L46.1283 205.188Z" fill="white"/>
<path d="M52.5185 190.998L41.3185 195.19L38.3149 187.11L39.6429 186.616L42.1031 193.265L45.5353 191.938L43.1805 185.741L44.5085 185.247L46.8633 191.444L50.6715 189.986L48.1085 183.137L49.4365 182.642L52.5185 190.998Z" fill="white"/>
<path d="M48.7879 180.759L37.223 183.746L36.804 182.189L41.5452 180.947L39.9719 174.917L35.2307 176.159L34.8117 174.601L46.3767 171.615L46.7957 173.172L41.327 174.599L42.9002 180.629L48.3689 179.202L48.7879 180.759Z" fill="white"/>
<path d="M34.0907 170.855L33.9233 169.294L38.9727 168.654L38.6404 165.785C38.3945 163.948 38.557 162.661 39.2035 161.947C39.8256 161.31 40.5504 160.873 41.4294 160.736C42.3841 160.624 43.1657 160.791 43.977 161.386C44.7126 161.957 45.2019 163.035 45.4721 164.796L46.0233 169.325L34.0907 170.855ZM44.4738 167.907L44.1415 165.038C44.0307 164.082 43.7712 163.329 43.3899 162.956C43.0086 162.582 42.4786 162.412 41.6997 162.497C41.1723 162.579 40.7963 162.709 40.5231 163.04C40.2499 163.371 40.0524 163.726 40.0064 164.13C39.9604 164.534 40.0441 165.314 40.1549 166.271L40.4034 168.36L44.4738 167.907ZM32.8237 160.486L32.6562 158.926L44.513 157.372L44.6805 158.933L32.8237 160.486Z" fill="white"/>
<path d="M44.4506 156.264L38.1632 151.652L32.421 155.753L32.451 153.837L35.4965 151.633C36.1457 151.172 36.5947 150.814 36.9706 150.683C36.5407 150.462 36.0593 150.14 35.6023 149.742L32.4329 147.386L32.4142 145.622L38.0931 149.788L44.4088 145.2L44.4545 147.141L40.2107 150.216C39.9862 150.395 39.686 150.55 39.3858 150.705C39.8158 150.926 40.1457 151.2 40.2971 151.248L44.505 154.272L44.4506 156.264Z" fill="white"/>
<path d="M40.4243 141.745L36.4944 143.582L36.6325 142.37L40.6084 140.13L44.1104 143.011L43.9723 144.223L40.4243 141.745ZM40.6925 138.566L36.7869 140.327L36.925 139.116L40.8252 136.851L44.3028 139.808L44.1647 141.02L40.6925 138.566Z" fill="white"/>
<path d="M34.5189 127.879L36.7108 118.704L48.3615 121.437L48.0259 123.004L37.7869 120.556L36.3419 126.622L46.5809 129.07L46.2453 130.636L34.5189 127.879Z" fill="white"/>
<path d="M49.04 119.312L37.7789 115.364L39.3183 111.086C39.5618 110.327 39.8323 109.744 40.0298 109.389C40.276 108.882 40.6493 108.5 41.0739 108.217C41.4986 107.935 41.9746 107.753 42.502 107.671C43.0294 107.589 43.5838 107.683 44.1896 107.877C45.174 108.193 45.8095 108.816 46.2962 109.642C46.7829 110.467 46.7205 111.703 46.1334 113.273L45.108 116.209L49.6784 117.842L49.04 119.312ZM43.5936 115.723L44.6189 112.787C44.9355 111.8 45.0032 111.068 44.8464 110.516C44.6896 109.963 44.2083 109.641 43.5511 109.347C43.0968 109.201 42.6181 109.131 42.2421 109.262C41.7905 109.368 41.4659 109.599 41.2684 109.954C41.1197 110.157 40.8978 110.589 40.6543 111.348L39.6532 114.207L43.5936 115.723Z" fill="white"/>
<path d="M47.1295 107.313C45.3095 106.478 44.19 105.282 43.6466 103.852C43.1031 102.422 43.1628 100.934 43.9014 99.4129C44.3937 98.3989 45.0645 97.6096 45.9138 97.0449C46.7631 96.4802 47.6908 96.1919 48.7726 96.2041C49.8544 96.2163 50.8632 96.4562 51.9503 96.9724C53.0375 97.4886 53.9001 98.184 54.5383 99.0584C55.1764 99.9328 55.5387 100.886 55.5494 101.894C55.6358 102.926 55.4193 103.862 54.9513 104.8C54.459 105.814 53.7881 106.603 52.9388 107.168C52.0896 107.732 51.0861 107.996 50.0801 108.009C49.074 108.021 48.0652 107.781 47.1295 107.313ZM47.8437 105.868C49.158 106.457 50.3426 106.67 51.3947 106.254C52.4982 105.938 53.2447 105.173 53.7371 104.159C54.2538 103.069 54.3432 102.009 53.8538 100.932C53.4401 99.8781 52.5505 99.0067 51.1604 98.3933C50.3005 97.9499 49.4431 97.7586 48.6128 97.7434C47.7826 97.7281 47.1308 97.9376 46.4302 98.2988C45.8054 98.6844 45.2834 99.2703 44.9642 100.005C44.4718 101.019 44.3824 102.079 44.7204 103.108C45.2097 104.186 46.1751 105.081 47.8437 105.868Z" fill="white"/>
<path d="M58.2 98.0566L48.0454 91.7014L52.6468 84.3877L53.8367 85.1043L50.0766 91.0973L53.2163 93.0255L56.7789 87.3876L57.9688 88.1042L54.4062 93.742L57.8758 95.9434L61.7846 89.747L62.9745 90.4636L58.2 98.0566Z" fill="white"/>
<path d="M54.6288 81.5915L55.6215 80.3194L59.7807 83.4955C60.227 82.8852 60.4488 82.4541 60.4191 82.026C60.3894 81.5979 60.1055 80.9209 59.5161 79.8946C59.0808 79.169 58.8482 78.5921 58.7185 78.2156C58.5887 77.8391 58.559 77.411 58.605 77.0072C58.6754 76.5275 58.8729 76.1723 59.1705 75.7655C59.5681 75.3071 59.7412 75.0278 59.7412 75.0278L60.8067 75.8719C60.7823 75.9478 60.6823 75.9994 60.6336 76.1512C60.5091 76.2787 60.4848 76.3546 60.4604 76.4305C60.1629 76.8373 60.0411 77.2168 60.0952 77.569C60.1492 77.9212 60.3817 78.4981 60.817 79.2237C61.3551 80.1498 61.639 80.8269 61.6931 81.179C61.7471 81.5312 61.7011 81.935 61.5793 82.3145C62.2285 81.8531 63.2832 81.6892 64.6679 81.7986L69.3521 82.2968L68.1863 83.8482L64.3838 83.4654C63.3263 83.3773 62.5961 83.3104 62.0687 83.3924C61.5413 83.4743 61.1167 83.7567 60.7948 84.2394L65.2081 87.6644L64.2154 88.9365L54.6288 81.5915Z" fill="white"/>
<path d="M72.088 79.2396L64.3892 71.998L61.7032 74.9034L60.6865 73.9075L67.1782 66.9491L68.195 67.945L65.509 70.8504L73.2078 78.092L72.088 79.2396Z" fill="white"/>
<path d="M72.0726 70.6962C70.7989 69.1993 70.1284 67.6448 70.1881 66.1571C70.2478 64.6694 70.9377 63.3002 72.2089 62.2012C73.0312 61.4604 73.9319 60.996 74.9867 60.8321C76.0414 60.6682 77.0232 60.732 77.9832 61.1237C78.9433 61.5154 79.8059 62.2108 80.6199 63.0579C81.4095 63.9809 81.9232 64.9829 82.1854 65.9878C82.4476 66.9928 82.3582 68.0524 82.066 68.9632C81.6737 69.9256 81.1544 70.7636 80.3564 71.4284C79.5342 72.1692 78.5578 72.6094 77.5787 72.7975C76.5239 72.9614 75.5665 72.8217 74.6065 72.43C73.5464 72.0899 72.7351 71.4947 72.0726 70.6962ZM73.3439 69.5972C74.3363 70.669 75.299 71.3127 76.4322 71.4251C77.5653 71.5375 78.5931 71.1976 79.4154 70.4568C80.3377 69.6644 80.8057 68.7263 80.8437 67.5665C80.8818 66.4067 80.4168 65.253 79.373 64.081C78.7618 63.3826 78.0263 62.8118 77.2934 62.493C76.5605 62.1741 75.8546 62.0314 75.0514 62.1922C74.3482 62.3015 73.6477 62.6628 73.0742 63.1485C72.252 63.8892 71.784 64.8274 71.6702 65.9629C71.5565 67.0984 72.0972 68.2764 73.3439 69.5972Z" fill="white"/>
<path d="M85.8373 66.574L79.0422 56.7761L82.7125 54.1865C83.4618 53.6734 84.1379 53.3881 84.6897 53.2303C85.2414 53.0724 85.8715 53.1909 86.3773 53.4368C86.883 53.6828 87.3643 54.0046 87.6455 54.4297C87.9268 54.8548 88.1079 55.3315 88.1132 55.8355C88.1186 56.3394 88.0239 56.895 87.6776 57.4537C88.4295 57.1926 89.084 57.2352 89.6898 57.4295C90.2956 57.6239 90.8283 58.0459 91.2366 58.5955C91.5935 59.0448 91.7747 59.5215 91.8558 60.0498C91.9368 60.5781 91.8664 61.0578 91.7447 61.4373C91.6229 61.8168 91.4011 62.2479 91.0035 62.7063C90.6302 63.0889 90.1568 63.523 89.5077 63.9844L85.8373 66.574ZM86.3434 64.4761L88.8155 62.7578C89.2402 62.4755 89.489 62.2205 89.6891 62.1172C89.938 61.8622 90.1111 61.5829 90.2843 61.3036C90.3817 61 90.4547 60.7723 90.4007 60.4201C90.3466 60.0679 90.2682 59.7916 90.0384 59.4668C89.8086 59.1419 89.4786 58.8686 89.1 58.7471C88.7214 58.6257 88.3184 58.5801 87.9425 58.7106C87.5665 58.8412 86.9904 59.0749 86.417 59.5606L84.145 61.1757L86.3434 64.4761ZM83.2013 59.9521L85.3489 58.4645C85.898 58.0547 86.3226 57.7724 86.4957 57.4931C86.7689 57.1621 86.8663 56.8585 86.9124 56.4547C86.934 56.1268 86.8043 55.7504 86.5744 55.4255C86.3446 55.1006 86.0904 54.8516 85.7118 54.7302C85.4089 54.633 85.0059 54.5874 84.73 54.6663C84.3541 54.7969 83.8537 55.0549 83.1045 55.5679L81.1571 56.9523L83.2013 59.9521Z" fill="white"/>
<path d="M105.583 45.1159L104.523 42.4319L107.203 41.3665L108.263 44.0504L105.583 45.1159Z" fill="white"/>
<path d="M126.914 35.3836L136.231 33.9359L138.017 45.8103L136.435 46.0561L134.865 35.5905L128.712 36.5465L130.282 47.0121L128.7 47.2579L126.914 35.3836Z" fill="white"/>
<path d="M139.537 39.7687C139.491 37.8286 139.927 36.2104 140.971 35.0386C142.015 33.8667 143.367 33.296 145.077 33.1746C146.183 33.1109 147.191 33.3509 148.103 33.8944C149.039 34.362 149.725 35.0846 150.188 35.9864C150.726 36.9124 150.964 37.9933 151.001 39.1774C151.039 40.3615 150.85 41.4727 150.357 42.4867C149.889 43.4248 149.218 44.2142 148.369 44.7788C147.52 45.3435 146.516 45.6076 145.51 45.6197C144.404 45.6834 143.395 45.4434 142.484 44.8999C141.573 44.3564 140.886 43.6338 140.424 42.732C139.81 41.7817 139.548 40.7767 139.537 39.7687ZM141.146 39.699C141.186 41.1351 141.651 42.2888 142.414 43.0357C143.228 43.8829 144.212 44.1987 145.394 44.1593C146.576 44.1199 147.553 43.6797 148.248 42.8145C149.019 41.9735 149.332 40.7348 149.241 39.1985C149.23 38.1906 148.995 37.3617 148.635 36.6603C148.276 35.959 147.792 35.3851 147.159 35.0146C146.526 34.6442 145.82 34.5015 144.99 34.4862C143.884 34.5499 142.932 34.9142 142.161 35.7551C141.466 36.6204 141.127 37.935 141.146 39.699Z" fill="white"/>
<path d="M154.511 33.4392L161.762 34.0074L160.968 44.5518L162.026 44.6399L161.692 48.8024L160.308 48.693L160.53 45.918L152.625 45.3072L152.402 48.0822L151.018 47.9728L151.351 43.8103L152.257 43.8499C153.374 42.4503 154.048 39.5691 154.378 35.1546L154.511 33.4392ZM160.115 35.2369L155.961 34.9088L155.942 35.4887C155.877 36.4724 155.665 37.9115 155.357 39.6542C155.048 41.3969 154.586 42.839 153.993 43.9046L159.456 44.3179L160.115 35.2369Z" fill="white"/>
<path d="M166.751 34.6029L173.934 35.9028L172.031 46.2588L173.064 46.4229L172.328 50.5398L170.916 50.2543L171.39 47.4763L163.577 46.0579L163.103 48.8359L161.691 48.5504L162.428 44.4335L163.385 44.5732C164.629 43.2982 165.606 40.5141 166.415 36.1695L166.751 34.6029ZM172.059 37.0595L167.951 36.3275L167.832 36.959C167.667 37.9943 167.329 39.3089 166.793 40.9787C166.333 42.6728 165.643 44.0421 164.975 45.0834L170.419 46.0766L172.059 37.0595Z" fill="white"/>
<path d="M174.366 48.348L177.715 36.8656L186.042 39.2859L185.604 40.6522L178.816 38.6418L177.772 42.1576L184.105 44.0221L183.667 45.3884L177.333 43.5238L176.167 47.419L183.182 49.5022L182.744 50.8685L174.366 48.348Z" fill="white"/>
<path d="M184.712 51.5001L189.198 40.3822L193.417 42.0705C194.15 42.3893 194.731 42.6596 195.085 42.8569C195.567 43.1788 195.948 43.5523 196.254 43.9014C196.535 44.3265 196.64 44.7789 196.721 45.3072C196.802 45.8355 196.708 46.3911 196.437 46.974C196.045 47.9364 195.423 48.5739 194.546 48.9625C193.67 49.3511 192.461 49.2144 190.895 48.6283L188.091 47.4775L186.227 51.986L184.712 51.5001ZM188.556 46.2873L191.436 47.4625C192.396 47.8542 193.127 47.9211 193.678 47.7632C194.23 47.6054 194.628 47.1469 194.923 46.4881C195.069 46.0327 195.139 45.553 195.009 45.1765C194.879 44.8 194.674 44.3993 194.344 44.126C194.141 43.9772 193.711 43.7555 193.054 43.461L190.25 42.3101L188.556 46.2873Z" fill="white"/>
<path d="M206.718 48.5139L204.151 53.1317C204.859 53.5264 205.414 53.6206 205.765 53.5659C206.141 53.4354 206.842 53.0741 207.74 52.3577C208.413 51.8203 208.938 51.4864 209.238 51.3316C209.539 51.1768 209.99 51.0705 210.418 51.0402C210.845 51.0099 211.299 51.1556 211.729 51.3773C212.159 51.599 212.438 51.772 212.565 51.8965L211.924 53.114C211.848 53.0897 211.772 53.0654 211.645 52.9409C211.494 52.8923 211.442 52.7921 211.367 52.7678C210.937 52.5461 210.558 52.4247 210.182 52.5552C209.83 52.6098 209.306 52.9438 208.708 53.5054C208.01 54.1186 207.41 54.4283 207.009 54.6347C206.609 54.8411 206.182 54.8715 205.627 54.7773C206.187 55.3755 206.549 56.3289 206.59 57.7649L206.841 62.4497L205.145 61.4871L204.954 57.6586C204.943 56.6506 204.835 55.9462 204.678 55.3936C204.497 54.9169 204.216 54.4919 203.558 54.1973L200.818 59.0944L199.401 58.3049L202.141 53.4078C201.711 53.1862 201.257 53.0404 200.73 53.1223C200.227 53.1284 199.526 53.4896 198.625 53.9541L198.425 54.0573L195.074 55.9122L193.379 54.9496L197.455 52.6576C198.68 51.9624 199.683 51.6983 200.465 51.8654C200.159 51.5162 199.954 51.1154 199.9 50.7632C199.846 50.411 199.838 49.655 199.978 48.6956C200.095 47.8121 200.138 47.1564 199.984 46.8558C199.906 46.5795 199.6 46.2303 199.17 46.0086L198.589 45.7384L199.23 44.521C199.306 44.5453 199.584 44.7183 200.014 44.94C200.444 45.1617 200.825 45.5351 201.055 45.86C201.261 46.2608 201.39 46.6373 201.445 46.9894C201.474 47.4175 201.455 47.9974 201.339 48.8809C201.225 50.0164 201.209 50.8483 201.338 51.2248C201.468 51.6013 201.85 51.9748 202.558 52.3695L205.125 47.7517L206.718 48.5139Z" fill="white"/>
<path d="M214.594 53.3844L215.887 54.3014L212.838 58.5973C213.447 59.0436 213.901 59.1894 214.329 59.159C214.756 59.1287 215.456 58.7675 216.406 58.1512C217.131 57.714 217.655 57.3801 218.031 57.2496C218.407 57.119 218.835 57.0887 219.238 57.1343C219.716 57.2041 220.095 57.3256 220.5 57.6232C220.982 57.945 221.236 58.194 221.236 58.194L220.468 59.287C220.392 59.2627 220.341 59.1625 220.189 59.1139C220.062 58.9894 219.986 58.9651 219.911 58.9408C219.505 58.6432 219.126 58.5218 218.775 58.5764C218.423 58.631 217.923 58.8891 217.198 59.3262C216.249 59.9425 215.648 60.2521 215.221 60.2825C214.869 60.3371 214.466 60.2915 214.063 60.2459C214.523 60.8957 214.785 61.9007 214.674 63.2882L214.346 67.9546L212.8 66.7887L213.111 62.9541C213.2 61.8945 213.192 61.1385 213.087 60.6861C212.982 60.2337 212.7 59.8087 212.243 59.4109L208.946 63.9618L207.653 63.0448L214.594 53.3844Z" fill="white"/>
<path d="M214.219 67.83L225.552 61.9225L226.847 63.0915L222.599 75.2903L221.228 74.097L222.573 70.4264L218.79 67.1199L215.439 68.9747L214.219 67.83ZM220.015 66.4247L223.087 69.0845L224.31 65.7935C224.702 64.831 225.046 64.0204 225.341 63.3616C224.692 63.8231 224.042 64.2845 223.342 64.6457L220.015 66.4247Z" fill="white"/>
<path d="M232.611 80.009L231.145 84.0591L230.355 83.1361L231.516 78.7369L236.014 78.2544L236.804 79.1774L232.611 80.009ZM230.548 77.5891L229.082 81.6392L228.292 80.7162L229.453 76.3169L233.951 75.8345L234.74 76.7575L230.548 77.5891Z" fill="white"/>
<path d="M234.51 83.7163L235.702 84.6849C235.305 85.1433 234.958 85.7019 234.815 86.4093C234.647 87.1926 234.755 87.897 235.215 88.5467C235.675 89.1965 236.283 89.6428 236.913 89.7613C237.543 89.8797 238.071 89.7978 238.595 89.4639C239.144 89.054 239.391 88.547 239.434 87.8912C239.477 87.2354 239.193 86.5583 238.682 85.8084L238.223 85.1586L239.321 84.339C239.729 84.8885 240.086 85.3379 240.416 85.6112C240.746 85.8844 241.125 86.0059 241.528 86.0515C242.006 86.1213 242.382 85.9908 242.731 85.6842C243.156 85.4019 243.378 84.9707 243.472 84.4151C243.567 83.8595 243.41 83.307 243.002 82.7574C242.669 82.2321 242.264 81.9346 241.734 81.7645C241.204 81.5944 240.701 81.6005 240.249 81.7067C239.773 81.8889 239.397 82.0194 239.197 82.1226L238.578 80.6683C240.879 79.4813 242.745 79.9125 244.124 81.8618C244.814 82.8365 245.101 83.7655 244.96 84.7249C244.819 85.6843 244.424 86.3947 243.675 86.9078C242.801 87.5483 241.771 87.6363 240.684 87.1201C240.916 87.697 240.873 88.3528 240.754 88.9843C240.635 89.6158 240.213 90.1501 239.588 90.5357C238.738 91.1003 237.835 91.3128 236.826 91.0729C235.818 90.833 234.931 90.2135 234.114 89.1144C232.84 87.6175 232.946 85.7261 234.51 83.7163Z" fill="white"/>
<path d="M237.718 94.2882L248.069 88.3168L252.349 95.8011L251.124 96.4963L247.587 90.3389L244.412 92.1664L247.667 97.8988L246.442 98.594L243.187 92.8616L239.611 94.8955L243.251 101.253L242.025 101.949L237.718 94.2882Z" fill="white"/>
<path d="M254.252 99.7602L257.318 106.604L246.402 111.473L245.783 110.019L255.422 105.744L253.694 101.758L248.061 104.22C246.908 104.687 246.032 105.076 245.505 105.158C244.953 105.316 244.399 105.221 243.969 105C243.539 104.778 243.157 104.405 242.976 103.928C242.822 103.627 242.717 103.175 242.611 102.723L243.966 102.404C243.969 102.656 244.047 102.932 244.074 103.108C244.228 103.409 244.483 103.658 244.81 103.679C245.137 103.7 245.765 103.567 246.641 103.178L254.252 99.7602Z" fill="white"/>
<path d="M247.205 113.656L258.586 109.941L261.289 118.175L259.986 118.594L257.801 111.866L254.342 113.016L256.421 119.292L255.117 119.711L253.038 113.435L249.203 114.716L251.466 121.72L250.162 122.139L247.205 113.656Z" fill="white"/>
<path d="M250.483 124L262.205 121.566L262.548 123.099L257.704 124.14L259.001 130.249L263.845 129.208L264.189 130.741L252.467 133.175L252.124 131.642L257.671 130.492L256.373 124.383L250.826 125.533L250.483 124Z" fill="white"/>
<path d="M265.623 145.014L265.79 146.575L253.877 147.524L253.709 145.964L265.623 145.014ZM264.707 134.591L264.875 136.152L259.798 136.616L260.055 139.461C260.201 141.349 259.963 142.612 259.34 143.25C258.718 143.887 257.942 144.224 257.063 144.361C256.133 144.397 255.275 144.206 254.54 143.635C253.804 143.064 253.339 141.911 253.221 140.198L252.845 135.641L264.707 134.591ZM254.319 137.035L254.551 139.955C254.638 140.988 254.846 141.64 255.203 142.09C255.56 142.539 256.09 142.709 256.869 142.624C257.372 142.618 257.772 142.412 258.121 142.105C258.47 141.798 258.592 141.419 258.638 141.015C258.684 140.611 258.676 139.855 258.589 138.823L258.441 136.683L254.319 137.035Z" fill="white"/>
<path d="M253.763 148.66L259.802 153.527L265.722 149.65L265.617 151.542L262.444 153.621C261.795 154.083 261.295 154.341 260.894 154.547C261.3 154.845 261.781 155.167 262.238 155.564L265.359 158.073L265.302 159.812L259.872 155.391L253.402 159.678L253.456 157.686L257.879 154.836C258.103 154.656 258.403 154.502 258.704 154.347C258.298 154.049 258.019 153.876 257.817 153.727L253.733 150.576L253.763 148.66Z" fill="white"/>
<path d="M256.719 166.518L260.651 164.934L260.513 166.145L256.51 168.209L253.157 165.125L253.295 163.913L256.719 166.518ZM257.138 163.388L261.095 161.728L260.957 162.939L256.954 165.003L253.601 161.918L253.739 160.707L257.138 163.388Z" fill="white"/>
<path d="M262.395 177.464L259.825 186.517L248.345 183.253L248.756 181.711L258.925 184.638L260.597 178.645L250.428 175.717L250.839 174.175L262.395 177.464Z" fill="white"/>
<path d="M247.564 185.43L258.654 189.909L256.963 194.138C256.644 194.873 256.374 195.455 256.176 195.811C255.854 196.293 255.481 196.676 255.132 196.982C254.708 197.265 254.256 197.371 253.728 197.453C253.201 197.535 252.647 197.441 252.065 197.171C251.105 196.779 250.47 196.156 250.083 195.279C249.696 194.401 249.759 193.166 250.422 191.62L251.574 188.809L247.052 187.024L247.564 185.43ZM252.786 189.198L251.609 192.085C251.217 193.047 251.149 193.779 251.306 194.332C251.462 194.884 251.919 195.282 252.577 195.577C253.031 195.722 253.51 195.792 253.886 195.662C254.337 195.555 254.662 195.325 254.935 194.994C255.084 194.79 255.306 194.359 255.6 193.701L256.753 190.889L252.786 189.198Z" fill="white"/>
<path d="M248.976 197.435C250.747 198.421 251.867 199.618 252.335 201.023C252.778 202.505 252.643 203.968 251.828 205.465C251.26 206.455 250.614 207.168 249.689 207.709C248.764 208.249 247.86 208.462 246.779 208.449C245.697 208.437 244.712 208.121 243.65 207.529C242.587 206.937 241.724 206.242 241.086 205.367C240.448 204.493 240.161 203.564 240.175 202.48C240.189 201.396 240.405 200.461 240.873 199.523C241.441 198.533 242.112 197.744 243.013 197.279C243.938 196.739 244.841 196.526 245.923 196.539C247.056 196.651 248.04 196.967 248.976 197.435ZM248.186 198.855C246.896 198.19 245.712 197.978 244.608 198.293C243.505 198.609 242.707 199.274 242.139 200.264C241.546 201.329 241.457 202.389 241.87 203.443C242.284 204.496 243.074 205.419 244.439 206.108C245.299 206.552 246.132 206.819 246.938 206.91C247.744 207.001 248.472 206.816 249.097 206.431C249.721 206.045 250.219 205.535 250.614 204.824C251.182 203.835 251.271 202.775 250.934 201.746C250.696 200.665 249.755 199.693 248.186 198.855Z" fill="white"/>
<path d="M237.469 206.217L247.302 213.055L242.346 220.171L241.181 219.379L245.219 213.559L242.204 211.503L238.439 216.992L237.273 216.2L241.039 210.711L237.693 208.382L233.506 214.405L232.341 213.613L237.469 206.217Z" fill="white"/>
<path d="M240.237 222.843L239.193 224.015L235.183 220.636C234.761 221.17 234.514 221.677 234.544 222.105C234.574 222.533 234.858 223.21 235.347 224.288C235.758 225.09 236.015 225.591 236.045 226.019C236.174 226.395 236.128 226.799 236.058 227.279C235.988 227.758 235.79 228.114 235.493 228.52C235.095 228.979 234.846 229.234 234.846 229.234L233.805 228.314C233.829 228.238 233.929 228.186 234.054 228.059C234.178 227.931 234.203 227.855 234.303 227.804C234.6 227.397 234.798 227.042 234.744 226.69C234.69 226.337 234.533 225.785 234.097 225.059C233.584 224.057 233.3 223.38 233.322 223.052C233.267 222.7 233.314 222.296 233.46 221.841C232.81 222.302 231.78 222.39 230.344 222.181L225.733 221.455L226.974 219.928L230.728 220.462C231.761 220.626 232.492 220.693 233.019 220.611C233.546 220.529 233.947 220.323 234.344 219.864L230.08 216.236L231.124 215.064L240.237 222.843Z" fill="white"/>
<path d="M222.772 224.439L230.122 231.987L232.935 229.206L233.951 230.202L227.154 236.811L226.137 235.816L228.95 233.035L221.6 225.486L222.772 224.439Z" fill="white"/>
<path d="M222.385 232.937C223.634 234.51 224.153 236.016 224.069 237.579C223.909 239.119 223.244 240.412 221.897 241.487C220.999 242.203 220.122 242.592 219.068 242.756C218.013 242.919 217.055 242.78 216.12 242.312C215.184 241.845 214.321 241.149 213.607 240.25C212.818 239.327 212.404 238.274 212.142 237.269C211.904 236.188 212.045 235.229 212.437 234.266C212.829 233.304 213.425 232.49 214.222 231.825C215.12 231.109 216.073 230.745 217.127 230.581C218.158 230.493 219.115 230.632 220.075 231.024C221.035 231.416 221.722 232.139 222.385 232.937ZM221.062 233.936C220.17 232.812 219.131 232.144 218.022 231.956C216.913 231.768 215.886 232.108 214.988 232.824C214.09 233.541 213.522 234.53 213.484 235.69C213.37 236.826 213.835 237.979 214.779 239.203C215.365 239.977 216.025 240.524 216.734 240.919C217.442 241.313 218.173 241.38 218.927 241.371C219.706 241.286 220.382 241.001 220.956 240.515C221.854 239.799 222.297 238.936 222.487 237.825C222.701 236.638 222.184 235.384 221.062 233.936Z" fill="white"/>
<path d="M208.384 236.482L214.73 246.638L210.957 249.028C210.208 249.541 209.532 249.826 208.929 249.884C208.326 249.941 207.747 249.923 207.266 249.601C206.784 249.279 206.303 248.957 206.022 248.532C205.74 248.107 205.635 247.655 205.578 247.051C205.522 246.446 205.743 246.015 206.09 245.457C205.362 245.642 204.683 245.675 204.102 245.405C203.52 245.135 203.039 244.813 202.655 244.187C202.398 243.686 202.217 243.21 202.136 242.682C202.055 242.153 202.125 241.674 202.247 241.294C202.369 240.915 202.666 240.508 203.04 240.125C203.413 239.743 203.962 239.333 204.587 238.947L208.384 236.482ZM210.744 243.183L208.545 244.57C207.921 244.956 207.572 245.263 207.323 245.518C207.05 245.848 206.877 246.128 206.831 246.532C206.784 246.935 206.939 247.236 207.168 247.561C207.398 247.886 207.652 248.135 207.931 248.308C208.21 248.481 208.613 248.526 208.988 248.396C209.364 248.265 209.865 248.007 210.59 247.57L212.588 246.286L210.744 243.183ZM207.827 238.48L205.303 240.098C204.879 240.38 204.554 240.611 204.43 240.739C204.181 240.994 203.932 241.249 203.859 241.476C203.686 241.756 203.688 242.008 203.742 242.36C203.797 242.712 203.875 242.988 204.105 243.313C204.31 243.714 204.64 243.987 205.019 244.109C205.397 244.23 205.8 244.276 206.176 244.145C206.628 244.039 207.128 243.781 207.753 243.395L210.077 241.88L207.827 238.48Z" fill="white"/>
<path d="M192.36 255.199L193.419 257.883L190.739 258.948L189.679 256.264L192.36 255.199Z" fill="white"/>
<circle cx="149.338" cy="149.557" r="91" transform="rotate(-162.213 149.338 149.557)" stroke="#69FF93"/>
<g clip-path="url(#clip1_1_233)">
<path d="M149.825 89.5826C149.762 89.5544 149.698 89.5312 149.632 89.5133C149.525 89.4584 149.412 89.4172 149.295 89.3907C149.207 89.3828 149.119 89.3828 149.031 89.3907C148.921 89.3828 148.811 89.3881 148.702 89.4067C148.596 89.4336 148.492 89.4711 148.393 89.5186C148.32 89.5396 148.25 89.5654 148.181 89.5959C145.856 91.0106 91.2926 125.005 100.558 163.643C105.988 186.239 124.744 189.383 134.756 189.383C136.904 189.404 139.049 189.248 141.171 188.914C141.374 188.876 141.568 188.798 141.741 188.684C141.914 188.57 142.064 188.424 142.181 188.252C142.297 188.08 142.379 187.887 142.422 187.683C142.464 187.479 142.467 187.269 142.428 187.065C142.346 186.654 142.108 186.292 141.766 186.054C141.423 185.816 141.002 185.722 140.591 185.791C139.355 186.028 110.412 191.085 103.626 162.899C95.4833 128.956 142.232 97.2132 149.004 92.8224C155.773 97.2132 202.528 128.956 194.374 162.894C187.602 191.091 158.648 186.047 157.407 185.781C156.996 185.708 156.573 185.801 156.23 186.039C155.887 186.277 155.651 186.642 155.572 187.054C155.534 187.259 155.536 187.469 155.578 187.673C155.621 187.876 155.703 188.069 155.82 188.241C155.937 188.413 156.086 188.56 156.259 188.673C156.432 188.787 156.626 188.865 156.83 188.903C158.951 189.237 161.097 189.394 163.244 189.372C173.254 189.372 192.012 186.228 197.439 163.632C206.716 125.005 152.152 91.0106 149.825 89.5826Z" fill="#69FF93"/>
<path d="M177.939 150.01C178.106 149.868 178.242 149.692 178.338 149.494C178.434 149.296 178.489 149.08 178.498 148.859C178.508 148.639 178.472 148.418 178.394 148.213C178.315 148.007 178.195 147.82 178.041 147.663C177.887 147.507 177.703 147.384 177.5 147.304C177.298 147.223 177.081 147.186 176.863 147.195C176.645 147.204 176.432 147.259 176.236 147.356C176.04 147.453 175.867 147.59 175.726 147.758L150.578 173.281L150.578 159.36L170.728 138.937C170.897 138.796 171.036 138.62 171.135 138.421C171.234 138.222 171.29 138.005 171.301 137.783C171.312 137.56 171.277 137.338 171.198 137.131C171.119 136.923 170.998 136.734 170.843 136.577C170.688 136.419 170.502 136.296 170.297 136.216C170.092 136.136 169.873 136.1 169.654 136.111C169.434 136.121 169.22 136.179 169.024 136.278C168.827 136.378 168.654 136.519 168.514 136.69L150.578 154.873L150.578 140.963L161.649 129.736C161.82 129.595 161.96 129.419 162.06 129.22C162.16 129.021 162.217 128.803 162.229 128.58C162.24 128.357 162.205 128.134 162.126 127.925C162.047 127.717 161.926 127.527 161.77 127.369C161.614 127.211 161.427 127.088 161.222 127.008C161.016 126.928 160.796 126.893 160.576 126.904C160.356 126.916 160.141 126.974 159.944 127.075C159.748 127.176 159.575 127.318 159.436 127.492L150.578 136.472L150.578 122.164C150.603 121.94 150.582 121.714 150.515 121.499C150.448 121.285 150.337 121.087 150.19 120.919C150.042 120.751 149.861 120.617 149.659 120.524C149.456 120.432 149.237 120.385 149.015 120.385C148.793 120.385 148.573 120.432 148.371 120.524C148.168 120.617 147.987 120.751 147.84 120.919C147.692 121.087 147.581 121.285 147.515 121.499C147.448 121.714 147.426 121.94 147.452 122.164L147.452 136.475L138.596 127.494C138.294 127.25 137.914 127.128 137.528 127.15C137.143 127.171 136.778 127.336 136.505 127.613C136.232 127.89 136.068 128.258 136.046 128.649C136.023 129.04 136.143 129.426 136.383 129.733L147.431 140.957L147.431 154.87L129.497 136.69C129.195 136.439 128.811 136.311 128.421 136.33C128.031 136.35 127.661 136.516 127.385 136.796C127.109 137.076 126.946 137.451 126.927 137.847C126.908 138.242 127.035 138.631 127.283 138.937L147.431 159.36L147.431 173.281L122.283 147.758C122.143 147.588 121.969 147.449 121.773 147.35C121.578 147.251 121.364 147.195 121.145 147.185C120.927 147.175 120.709 147.211 120.505 147.291C120.301 147.372 120.115 147.494 119.961 147.651C119.806 147.808 119.685 147.995 119.606 148.202C119.527 148.409 119.492 148.63 119.502 148.851C119.512 149.073 119.567 149.29 119.664 149.488C119.762 149.687 119.899 149.863 120.067 150.005L147.431 177.766L147.431 208.606C147.405 208.829 147.427 209.056 147.494 209.27C147.56 209.485 147.671 209.683 147.819 209.851C147.966 210.019 148.147 210.153 148.35 210.245C148.552 210.337 148.772 210.385 148.994 210.385C149.216 210.385 149.435 210.337 149.638 210.245C149.84 210.153 150.021 210.019 150.169 209.851C150.316 209.683 150.427 209.485 150.494 209.27C150.561 209.056 150.582 208.829 150.557 208.606L150.557 177.766L177.939 150.01Z" fill="#69FF93"/>
</g>
</g>
<defs>
<clipPath id="clip0_1_233">
<rect width="237.769" height="237.286" fill="white" transform="translate(226.891 299) rotate(-162.213)"/>
</clipPath>
<clipPath id="clip1_1_233">
<rect width="111" height="111" fill="white" transform="translate(149 71.396) rotate(45)"/>
</clipPath>
</defs>
</svg>
